<svg width="723" height="481" viewBox="0 0 723 481" fill="none" xmlns="http://www.w3.org/2000/svg">
<rect x="293.5" y="53.6377" width="429" height="323" rx="15.5" fill="white"/>
<rect x="293.5" y="53.6377" width="429" height="323" rx="15.5" stroke="#D9D9D9"/>
<path d="M650 258.138C650 220.477 635.039 184.359 608.409 157.729C581.779 131.098 545.661 116.138 508 116.138C470.339 116.138 434.221 131.098 407.591 157.729C380.961 184.359 366 220.477 366 258.138" stroke="url(#paint0_linear_40_1457)" stroke-width="60"/>
<path d="M595.446 258.138C595.446 234.946 586.233 212.703 569.834 196.304C553.435 179.904 531.192 170.691 508 170.691C484.808 170.691 462.566 179.904 446.166 196.304C429.767 212.703 420.554 234.946 420.554 258.138" stroke="url(#paint1_linear_40_1457)" stroke-linecap="round" stroke-dasharray="0 1 10 0 1 10"/>
<path d="M608.283 157.729C581.666 131.098 545.567 116.138 507.926 116.138C470.285 116.138 434.185 131.098 407.569 157.729C380.953 184.359 366 220.477 366 258.138" stroke="url(#paint2_linear_40_1457)" stroke-width="60"/>
<g opacity="0.4" filter="url(#filter0_d_40_1457)">
<ellipse cx="508" cy="258.137" rx="56.1582" ry="56.1582" fill="white"/>
</g>
<path d="M590.633 174.703L625.13 140.206" stroke="white" stroke-width="5"/>
<path d="M508.401 282.371C519.124 282.371 527.991 273.504 527.991 262.781C527.991 252.039 519.124 243.192 508.381 243.192C497.659 243.192 488.811 252.039 488.811 262.781C488.811 273.504 497.678 282.371 508.401 282.371ZM508.401 279.832C498.948 279.832 491.35 272.215 491.35 262.781C491.35 253.328 498.948 245.711 508.381 245.711C517.835 245.711 525.452 253.328 525.471 262.781C525.471 272.215 517.854 279.832 508.401 279.832ZM508.381 252.684C509.358 252.684 510.178 251.883 510.178 250.906C510.178 249.91 509.358 249.11 508.381 249.11C507.405 249.11 506.604 249.91 506.604 250.906C506.604 251.883 507.405 252.684 508.381 252.684ZM505.569 265.399C507.014 266.805 508.948 266.473 510.178 264.793L518.342 253.934C518.967 253.074 518.088 252.235 517.249 252.821L506.135 260.75C504.456 261.942 504.124 263.934 505.569 265.399ZM500.022 256.258C500.999 256.258 501.799 255.438 501.799 254.461C501.799 253.485 500.999 252.684 500.022 252.684C499.045 252.684 498.225 253.485 498.225 254.461C498.225 255.438 499.045 256.258 500.022 256.258ZM496.545 264.578C497.522 264.578 498.323 263.758 498.323 262.781C498.323 261.805 497.522 261.004 496.545 261.004C495.569 261.004 494.749 261.805 494.749 262.781C494.749 263.758 495.569 264.578 496.545 264.578ZM520.237 264.578C521.213 264.578 522.034 263.758 522.034 262.781C522.034 261.805 521.213 261.004 520.237 261.004C519.26 261.004 518.46 261.805 518.46 262.781C518.46 263.758 519.26 264.578 520.237 264.578ZM500.042 272.899C501.038 272.899 501.838 272.098 501.838 271.121C501.838 270.125 501.038 269.324 500.042 269.324C499.065 269.324 498.245 270.125 498.245 271.121C498.245 272.098 499.065 272.899 500.042 272.899ZM516.741 272.899C517.717 272.899 518.518 272.098 518.518 271.121C518.518 270.125 517.717 269.324 516.741 269.324C515.745 269.324 514.944 270.125 514.944 271.121C514.944 272.098 515.745 272.899 516.741 272.899Z" fill="url(#paint3_linear_40_1457)"/>
<g filter="url(#filter1_d_40_1457)">
<rect x="127" y="336.138" width="235" height="124" rx="16" fill="white" shape-rendering="crispEdges"/>
<path d="M147.396 356.418C148.356 356.418 149.199 356.583 149.924 356.914C150.649 357.244 151.268 357.735 151.78 358.386L150.548 359.81C150.111 359.255 149.631 358.85 149.108 358.594C148.596 358.327 147.999 358.194 147.316 358.194C146.868 358.194 146.495 358.252 146.196 358.37C145.908 358.487 145.695 358.642 145.556 358.834C145.428 359.026 145.364 359.239 145.364 359.474C145.364 359.762 145.476 360.007 145.7 360.21C145.924 360.402 146.308 360.562 146.852 360.69L148.82 361.138C149.865 361.372 150.612 361.724 151.06 362.194C151.519 362.652 151.748 363.25 151.748 363.986C151.748 364.679 151.567 365.276 151.204 365.778C150.841 366.268 150.335 366.647 149.684 366.914C149.033 367.17 148.287 367.298 147.444 367.298C146.708 367.298 146.031 367.212 145.412 367.042C144.804 366.86 144.26 366.615 143.78 366.306C143.3 365.996 142.9 365.639 142.58 365.234L143.828 363.746C144.073 364.087 144.377 364.391 144.74 364.658C145.103 364.924 145.513 365.138 145.972 365.298C146.441 365.447 146.932 365.522 147.444 365.522C147.881 365.522 148.249 365.474 148.548 365.378C148.857 365.271 149.087 365.127 149.236 364.946C149.396 364.754 149.476 364.524 149.476 364.258C149.476 363.98 149.38 363.746 149.188 363.554C149.007 363.351 148.665 363.196 148.164 363.09L146.02 362.61C145.401 362.46 144.868 362.268 144.42 362.034C143.983 361.788 143.647 361.479 143.412 361.106C143.188 360.722 143.076 360.268 143.076 359.746C143.076 359.116 143.247 358.551 143.588 358.05C143.929 357.548 144.42 357.154 145.06 356.866C145.711 356.567 146.489 356.418 147.396 356.418ZM157.245 358.978C157.96 358.978 158.562 359.084 159.053 359.298C159.554 359.5 159.954 359.783 160.253 360.146C160.562 360.498 160.781 360.892 160.909 361.33L158.861 362.066C158.754 361.586 158.573 361.223 158.317 360.978C158.061 360.732 157.714 360.61 157.277 360.61C156.872 360.61 156.525 360.706 156.237 360.898C155.949 361.079 155.73 361.362 155.581 361.746C155.432 362.119 155.357 362.588 155.357 363.154C155.357 363.719 155.432 364.188 155.581 364.562C155.741 364.935 155.965 365.212 156.253 365.394C156.552 365.575 156.898 365.666 157.293 365.666C157.613 365.666 157.885 365.612 158.109 365.506C158.333 365.388 158.514 365.223 158.653 365.01C158.802 364.796 158.904 364.54 158.957 364.242L160.941 364.882C160.824 365.362 160.605 365.783 160.285 366.146C159.965 366.508 159.554 366.791 159.053 366.994C158.552 367.196 157.97 367.298 157.309 367.298C156.488 367.298 155.762 367.132 155.133 366.802C154.504 366.471 154.018 365.996 153.677 365.378C153.336 364.759 153.165 364.012 153.165 363.138C153.165 362.263 153.336 361.516 153.677 360.898C154.018 360.279 154.498 359.804 155.117 359.474C155.736 359.143 156.445 358.978 157.245 358.978ZM167.204 362.034C167.204 361.575 167.071 361.218 166.804 360.962C166.548 360.706 166.207 360.578 165.78 360.578C165.386 360.578 165.039 360.679 164.74 360.882C164.442 361.084 164.223 361.42 164.084 361.89L162.212 361.314C162.394 360.61 162.788 360.044 163.396 359.618C164.015 359.191 164.842 358.978 165.876 358.978C166.58 358.978 167.194 359.09 167.716 359.314C168.239 359.527 168.644 359.852 168.932 360.29C169.231 360.727 169.38 361.276 169.38 361.938V365.186C169.38 365.591 169.572 365.794 169.956 365.794C170.138 365.794 170.308 365.767 170.468 365.714L170.34 367.074C170.063 367.212 169.716 367.282 169.3 367.282C168.927 367.282 168.591 367.218 168.292 367.09C167.994 366.962 167.759 366.77 167.588 366.514C167.418 366.247 167.332 365.916 167.332 365.522V365.458L167.716 365.394C167.652 365.799 167.476 366.146 167.188 366.434C166.9 366.711 166.548 366.924 166.132 367.074C165.727 367.223 165.306 367.298 164.868 367.298C164.324 367.298 163.855 367.218 163.46 367.058C163.066 366.887 162.762 366.642 162.548 366.322C162.335 366.002 162.228 365.607 162.228 365.138C162.228 364.54 162.42 364.055 162.804 363.682C163.188 363.298 163.738 363.036 164.452 362.898L167.46 362.29L167.444 363.65L165.524 364.034C165.162 364.108 164.884 364.21 164.692 364.338C164.511 364.455 164.42 364.652 164.42 364.93C164.42 365.196 164.516 365.399 164.708 365.538C164.911 365.676 165.151 365.746 165.428 365.746C165.652 365.746 165.871 365.719 166.084 365.666C166.298 365.612 166.49 365.527 166.66 365.41C166.831 365.292 166.964 365.132 167.06 364.93C167.156 364.727 167.204 364.482 167.204 364.194V362.034ZM173.992 355.634V364.674C173.992 365.047 174.056 365.308 174.184 365.458C174.312 365.607 174.525 365.682 174.824 365.682C175.005 365.682 175.154 365.671 175.272 365.65C175.389 365.618 175.538 365.575 175.72 365.522L175.528 366.962C175.346 367.068 175.117 367.148 174.84 367.202C174.573 367.266 174.306 367.298 174.04 367.298C173.261 367.298 172.69 367.111 172.328 366.738C171.976 366.354 171.8 365.746 171.8 364.914V355.634H173.992ZM181.579 362.034C181.579 361.575 181.446 361.218 181.179 360.962C180.923 360.706 180.582 360.578 180.155 360.578C179.761 360.578 179.414 360.679 179.115 360.882C178.817 361.084 178.598 361.42 178.459 361.89L176.587 361.314C176.769 360.61 177.163 360.044 177.771 359.618C178.39 359.191 179.217 358.978 180.251 358.978C180.955 358.978 181.569 359.09 182.091 359.314C182.614 359.527 183.019 359.852 183.307 360.29C183.606 360.727 183.755 361.276 183.755 361.938V365.186C183.755 365.591 183.947 365.794 184.331 365.794C184.513 365.794 184.683 365.767 184.843 365.714L184.715 367.074C184.438 367.212 184.091 367.282 183.675 367.282C183.302 367.282 182.966 367.218 182.667 367.09C182.369 366.962 182.134 366.77 181.963 366.514C181.793 366.247 181.707 365.916 181.707 365.522V365.458L182.091 365.394C182.027 365.799 181.851 366.146 181.563 366.434C181.275 366.711 180.923 366.924 180.507 367.074C180.102 367.223 179.681 367.298 179.243 367.298C178.699 367.298 178.23 367.218 177.835 367.058C177.441 366.887 177.137 366.642 176.923 366.322C176.71 366.002 176.603 365.607 176.603 365.138C176.603 364.54 176.795 364.055 177.179 363.682C177.563 363.298 178.113 363.036 178.827 362.898L181.835 362.29L181.819 363.65L179.899 364.034C179.537 364.108 179.259 364.21 179.067 364.338C178.886 364.455 178.795 364.652 178.795 364.93C178.795 365.196 178.891 365.399 179.083 365.538C179.286 365.676 179.526 365.746 179.803 365.746C180.027 365.746 180.246 365.719 180.459 365.666C180.673 365.612 180.865 365.527 181.035 365.41C181.206 365.292 181.339 365.132 181.435 364.93C181.531 364.727 181.579 364.482 181.579 364.194V362.034ZM190.911 367.298C190.42 367.298 189.972 367.196 189.567 366.994C189.172 366.78 188.841 366.492 188.575 366.13C188.319 365.756 188.143 365.34 188.047 364.882L188.271 364.594L188.143 367.138H186.207V355.634H188.399V361.394L188.191 361.058C188.361 360.46 188.687 359.964 189.167 359.57C189.647 359.175 190.249 358.978 190.975 358.978C191.604 358.978 192.175 359.143 192.687 359.474C193.199 359.804 193.599 360.279 193.887 360.898C194.185 361.516 194.335 362.268 194.335 363.154C194.335 364.018 194.185 364.759 193.887 365.378C193.599 365.996 193.193 366.471 192.671 366.802C192.159 367.132 191.572 367.298 190.911 367.298ZM190.255 365.618C190.841 365.618 191.3 365.41 191.631 364.994C191.972 364.567 192.143 363.948 192.143 363.138C192.143 362.327 191.977 361.714 191.647 361.298C191.316 360.871 190.857 360.658 190.271 360.658C189.887 360.658 189.556 360.759 189.279 360.962C189.001 361.164 188.783 361.452 188.623 361.826C188.473 362.199 188.399 362.642 188.399 363.154C188.399 363.676 188.473 364.124 188.623 364.498C188.783 364.86 189.001 365.138 189.279 365.33C189.567 365.522 189.892 365.618 190.255 365.618ZM197.342 357.986C196.883 357.986 196.542 357.89 196.318 357.698C196.094 357.495 195.982 357.202 195.982 356.818C195.982 356.423 196.094 356.13 196.318 355.938C196.542 355.735 196.883 355.634 197.342 355.634C197.801 355.634 198.142 355.735 198.366 355.938C198.59 356.13 198.702 356.423 198.702 356.818C198.702 357.202 198.59 357.495 198.366 357.698C198.142 357.89 197.801 357.986 197.342 357.986ZM198.43 359.138V367.138H196.238V359.138H198.43ZM202.914 355.634V364.674C202.914 365.047 202.978 365.308 203.106 365.458C203.234 365.607 203.447 365.682 203.746 365.682C203.927 365.682 204.076 365.671 204.194 365.65C204.311 365.618 204.46 365.575 204.642 365.522L204.45 366.962C204.268 367.068 204.039 367.148 203.762 367.202C203.495 367.266 203.228 367.298 202.962 367.298C202.183 367.298 201.612 367.111 201.25 366.738C200.898 366.354 200.722 365.746 200.722 364.914V355.634H202.914ZM206.967 357.986C206.508 357.986 206.167 357.89 205.943 357.698C205.719 357.495 205.607 357.202 205.607 356.818C205.607 356.423 205.719 356.13 205.943 355.938C206.167 355.735 206.508 355.634 206.967 355.634C207.426 355.634 207.767 355.735 207.991 355.938C208.215 356.13 208.327 356.423 208.327 356.818C208.327 357.202 208.215 357.495 207.991 357.698C207.767 357.89 207.426 357.986 206.967 357.986ZM208.055 359.138V367.138H205.863V359.138H208.055ZM213.211 356.69V364.53C213.211 364.914 213.307 365.196 213.499 365.378C213.701 365.548 213.973 365.634 214.315 365.634C214.581 365.634 214.816 365.596 215.019 365.522C215.221 365.436 215.403 365.324 215.563 365.186L215.915 366.642C215.659 366.844 215.339 367.004 214.955 367.122C214.571 367.239 214.165 367.298 213.739 367.298C213.205 367.298 212.731 367.218 212.315 367.058C211.909 366.898 211.589 366.642 211.355 366.29C211.131 365.938 211.019 365.468 211.019 364.882V357.298L213.211 356.69ZM215.771 359.138V360.77H209.547V359.138H215.771ZM224.774 359.138L221.542 367.634C221.286 368.359 220.998 368.935 220.678 369.362C220.368 369.788 220.006 370.098 219.59 370.29C219.184 370.482 218.699 370.578 218.134 370.578C217.718 370.578 217.334 370.524 216.982 370.418C216.64 370.322 216.342 370.194 216.086 370.034L216.55 368.45C216.752 368.61 216.966 368.722 217.19 368.786C217.414 368.86 217.67 368.898 217.958 368.898C218.256 368.898 218.512 368.834 218.726 368.706C218.95 368.578 219.136 368.322 219.286 367.938L219.558 367.25L218.678 365.17L216.23 359.138H218.662L220.182 363.938L220.598 365.538L221.094 363.842L222.55 359.138H224.774Z" fill="black"/>
<rect x="293" y="354.138" width="48" height="16" rx="4" fill="#424242"/>
<path d="M301.513 364.115V360.365H302.15V364.115H301.513ZM299.957 362.558V361.922H303.707V362.558H299.957ZM307.116 359.32V365.138H306.412V360.058H306.378L304.957 361.001V360.285L306.412 359.32H307.116ZM310.608 365.217C310.275 365.217 309.974 365.151 309.707 365.018C309.44 364.886 309.226 364.704 309.065 364.473C308.904 364.242 308.816 363.979 308.801 363.683H309.483C309.509 363.946 309.629 364.164 309.841 364.337C310.055 364.507 310.311 364.592 310.608 364.592C310.847 364.592 311.059 364.536 311.244 364.425C311.432 364.313 311.579 364.159 311.685 363.964C311.793 363.767 311.847 363.545 311.847 363.297C311.847 363.043 311.791 362.817 311.679 362.618C311.569 362.417 311.418 362.259 311.224 362.143C311.031 362.028 310.811 361.969 310.562 361.967C310.384 361.965 310.202 361.993 310.014 362.05C309.827 362.105 309.672 362.176 309.551 362.263L308.892 362.183L309.244 359.32H312.267V359.945H309.835L309.631 361.66H309.665C309.784 361.566 309.934 361.487 310.114 361.425C310.294 361.362 310.481 361.331 310.676 361.331C311.032 361.331 311.349 361.416 311.628 361.587C311.908 361.755 312.128 361.986 312.287 362.28C312.448 362.573 312.528 362.909 312.528 363.285C312.528 363.657 312.445 363.988 312.278 364.28C312.114 364.57 311.886 364.799 311.597 364.967C311.307 365.134 310.977 365.217 310.608 365.217ZM315.555 365.217C315.127 365.217 314.762 365.101 314.461 364.868C314.16 364.633 313.93 364.293 313.771 363.848C313.612 363.401 313.532 362.861 313.532 362.229C313.532 361.6 313.612 361.063 313.771 360.618C313.932 360.171 314.163 359.83 314.464 359.595C314.767 359.358 315.13 359.24 315.555 359.24C315.979 359.24 316.342 359.358 316.643 359.595C316.946 359.83 317.177 360.171 317.336 360.618C317.497 361.063 317.577 361.6 317.577 362.229C317.577 362.861 317.498 363.401 317.339 363.848C317.18 364.293 316.95 364.633 316.648 364.868C316.347 365.101 315.983 365.217 315.555 365.217ZM315.555 364.592C315.979 364.592 316.308 364.388 316.543 363.979C316.778 363.57 316.896 362.986 316.896 362.229C316.896 361.725 316.842 361.296 316.734 360.942C316.628 360.588 316.474 360.318 316.273 360.132C316.075 359.946 315.835 359.854 315.555 359.854C315.134 359.854 314.806 360.061 314.569 360.476C314.332 360.889 314.214 361.473 314.214 362.229C314.214 362.732 314.267 363.16 314.373 363.513C314.479 363.865 314.631 364.133 314.83 364.317C315.031 364.5 315.272 364.592 315.555 364.592ZM321.623 364.047V363.74C321.623 363.528 321.666 363.334 321.754 363.158C321.843 362.98 321.971 362.838 322.14 362.731C322.31 362.623 322.517 362.57 322.759 362.57C323.005 362.57 323.212 362.623 323.379 362.731C323.545 362.838 323.671 362.98 323.756 363.158C323.842 363.334 323.884 363.528 323.884 363.74V364.047C323.884 364.259 323.841 364.454 323.754 364.632C323.668 364.808 323.541 364.95 323.373 365.058C323.206 365.164 323.002 365.217 322.759 365.217C322.513 365.217 322.306 365.164 322.137 365.058C321.969 364.95 321.841 364.808 321.754 364.632C321.666 364.454 321.623 364.259 321.623 364.047ZM322.202 363.74V364.047C322.202 364.223 322.244 364.381 322.327 364.521C322.411 364.659 322.555 364.729 322.759 364.729C322.958 364.729 323.098 364.659 323.18 364.521C323.263 364.381 323.305 364.223 323.305 364.047V363.74C323.305 363.564 323.265 363.407 323.185 363.268C323.106 363.128 322.964 363.058 322.759 363.058C322.56 363.058 322.417 363.128 322.33 363.268C322.245 363.407 322.202 363.564 322.202 363.74ZM318.725 360.717V360.41C318.725 360.198 318.769 360.004 318.856 359.828C318.945 359.65 319.074 359.508 319.242 359.402C319.413 359.294 319.619 359.24 319.862 359.24C320.108 359.24 320.314 359.294 320.481 359.402C320.647 359.508 320.773 359.65 320.859 359.828C320.944 360.004 320.987 360.198 320.987 360.41V360.717C320.987 360.929 320.943 361.124 320.856 361.302C320.771 361.479 320.644 361.621 320.475 361.729C320.308 361.835 320.104 361.888 319.862 361.888C319.615 361.888 319.408 361.835 319.239 361.729C319.071 361.621 318.943 361.479 318.856 361.302C318.769 361.124 318.725 360.929 318.725 360.717ZM319.305 360.41V360.717C319.305 360.893 319.346 361.052 319.43 361.192C319.513 361.33 319.657 361.399 319.862 361.399C320.06 361.399 320.201 361.33 320.282 361.192C320.365 361.052 320.407 360.893 320.407 360.717V360.41C320.407 360.234 320.367 360.077 320.288 359.939C320.208 359.799 320.066 359.729 319.862 359.729C319.663 359.729 319.52 359.799 319.433 359.939C319.347 360.077 319.305 360.234 319.305 360.41ZM318.941 365.138L322.941 359.32H323.589L319.589 365.138H318.941ZM326.805 365.698H334.805V357.698H326.805V365.698Z" fill="#59CB00"/>
<path d="M141.042 449.266C140.553 449.264 140.133 449.143 139.781 448.905C139.43 448.666 139.16 448.32 138.971 447.868C138.783 447.415 138.691 446.871 138.692 446.234C138.692 445.6 138.786 445.059 138.974 444.612C139.163 444.165 139.433 443.825 139.783 443.592C140.136 443.357 140.555 443.24 141.042 443.24C141.529 443.24 141.947 443.357 142.298 443.592C142.65 443.827 142.921 444.168 143.11 444.615C143.299 445.06 143.393 445.6 143.391 446.234C143.391 446.873 143.297 447.418 143.107 447.871C142.92 448.323 142.651 448.669 142.3 448.908C141.95 449.146 141.531 449.266 141.042 449.266ZM141.042 448.246C141.375 448.246 141.641 448.078 141.84 447.743C142.039 447.408 142.138 446.905 142.136 446.234C142.136 445.793 142.09 445.426 141.999 445.132C141.91 444.838 141.783 444.618 141.619 444.47C141.456 444.322 141.263 444.248 141.042 444.248C140.71 444.248 140.445 444.414 140.246 444.746C140.048 445.077 139.947 445.573 139.945 446.234C139.945 446.681 139.99 447.054 140.079 447.354C140.17 447.651 140.298 447.874 140.462 448.024C140.627 448.172 140.82 448.246 141.042 448.246ZM146.8 443.32V449.138H145.57V444.487H145.536L144.203 445.322V444.231L145.643 443.32H146.8Z" fill="#5F5C5C"/>
<path d="M201.979 449.266C201.491 449.264 201.07 449.143 200.718 448.905C200.368 448.666 200.098 448.32 199.908 447.868C199.721 447.415 199.628 446.871 199.63 446.234C199.63 445.6 199.724 445.059 199.911 444.612C200.101 444.165 200.371 443.825 200.721 443.592C201.073 443.357 201.493 443.24 201.979 443.24C202.466 443.24 202.885 443.357 203.235 443.592C203.587 443.827 203.858 444.168 204.048 444.615C204.237 445.06 204.331 445.6 204.329 446.234C204.329 446.873 204.234 447.418 204.045 447.871C203.857 448.323 203.588 448.669 203.238 448.908C202.888 449.146 202.468 449.266 201.979 449.266ZM201.979 448.246C202.313 448.246 202.579 448.078 202.778 447.743C202.977 447.408 203.075 446.905 203.073 446.234C203.073 445.793 203.028 445.426 202.937 445.132C202.848 444.838 202.721 444.618 202.556 444.47C202.393 444.322 202.201 444.248 201.979 444.248C201.648 444.248 201.383 444.414 201.184 444.746C200.985 445.077 200.885 445.573 200.883 446.234C200.883 446.681 200.927 447.054 201.016 447.354C201.107 447.651 201.235 447.874 201.4 448.024C201.565 448.172 201.758 448.246 201.979 448.246ZM205.206 449.138V448.251L207.277 446.334C207.453 446.163 207.601 446.01 207.72 445.873C207.841 445.737 207.933 445.604 207.996 445.473C208.058 445.34 208.089 445.197 208.089 445.044C208.089 444.873 208.051 444.727 207.973 444.604C207.895 444.479 207.789 444.383 207.655 444.317C207.52 444.248 207.368 444.214 207.197 444.214C207.019 444.214 206.864 444.25 206.732 444.322C206.599 444.394 206.497 444.498 206.425 444.632C206.353 444.766 206.317 444.927 206.317 445.112H205.149C205.149 444.731 205.235 444.401 205.408 444.121C205.58 443.84 205.821 443.623 206.132 443.47C206.443 443.317 206.801 443.24 207.206 443.24C207.623 443.24 207.985 443.314 208.294 443.462C208.605 443.607 208.846 443.81 209.018 444.07C209.191 444.329 209.277 444.626 209.277 444.962C209.277 445.181 209.233 445.398 209.146 445.612C209.061 445.826 208.909 446.064 208.689 446.325C208.469 446.585 208.16 446.896 207.76 447.26L206.911 448.092V448.132H209.354V449.138H205.206Z" fill="#5F5C5C"/>
<path d="M263.862 449.266C263.374 449.264 262.953 449.143 262.601 448.905C262.25 448.666 261.981 448.32 261.791 447.868C261.604 447.415 261.511 446.871 261.513 446.234C261.513 445.6 261.607 445.059 261.794 444.612C261.983 444.165 262.253 443.825 262.604 443.592C262.956 443.357 263.375 443.24 263.862 443.24C264.349 443.24 264.768 443.357 265.118 443.592C265.47 443.827 265.741 444.168 265.93 444.615C266.12 445.06 266.214 445.6 266.212 446.234C266.212 446.873 266.117 447.418 265.928 447.871C265.74 448.323 265.471 448.669 265.121 448.908C264.77 449.146 264.351 449.266 263.862 449.266ZM263.862 448.246C264.196 448.246 264.462 448.078 264.661 447.743C264.859 447.408 264.958 446.905 264.956 446.234C264.956 445.793 264.911 445.426 264.82 445.132C264.731 444.838 264.604 444.618 264.439 444.47C264.276 444.322 264.084 444.248 263.862 444.248C263.531 444.248 263.266 444.414 263.067 444.746C262.868 445.077 262.768 445.573 262.766 446.234C262.766 446.681 262.81 447.054 262.899 447.354C262.99 447.651 263.118 447.874 263.283 448.024C263.447 448.172 263.641 448.246 263.862 448.246ZM269.239 449.217C268.815 449.217 268.437 449.144 268.106 448.998C267.776 448.851 267.516 448.648 267.325 448.391C267.135 448.131 267.038 447.832 267.032 447.493H268.271C268.278 447.635 268.325 447.76 268.41 447.868C268.497 447.974 268.612 448.056 268.756 448.115C268.9 448.174 269.062 448.203 269.242 448.203C269.43 448.203 269.595 448.17 269.739 448.104C269.883 448.037 269.996 447.945 270.077 447.828C270.159 447.711 270.2 447.575 270.2 447.422C270.2 447.266 270.156 447.129 270.069 447.01C269.984 446.889 269.861 446.794 269.7 446.726C269.54 446.658 269.351 446.623 269.131 446.623H268.589V445.72H269.131C269.317 445.72 269.481 445.688 269.623 445.623C269.767 445.559 269.879 445.47 269.958 445.356C270.038 445.241 270.077 445.106 270.077 444.953C270.077 444.807 270.042 444.679 269.972 444.57C269.904 444.458 269.808 444.371 269.683 444.308C269.559 444.246 269.415 444.214 269.251 444.214C269.084 444.214 268.932 444.245 268.793 444.305C268.655 444.364 268.544 444.448 268.461 444.558C268.378 444.668 268.333 444.797 268.327 444.945H267.148C267.154 444.609 267.25 444.314 267.435 444.058C267.621 443.802 267.871 443.603 268.185 443.459C268.502 443.313 268.859 443.24 269.256 443.24C269.658 443.24 270.009 443.313 270.31 443.459C270.612 443.605 270.845 443.802 271.012 444.05C271.181 444.296 271.264 444.572 271.262 444.879C271.264 445.205 271.163 445.477 270.958 445.695C270.755 445.912 270.491 446.051 270.165 446.109V446.155C270.594 446.21 270.919 446.358 271.143 446.601C271.368 446.841 271.48 447.142 271.478 447.504C271.48 447.836 271.384 448.13 271.191 448.388C271 448.645 270.736 448.848 270.398 448.996C270.061 449.143 269.675 449.217 269.239 449.217Z" fill="#5F5C5C"/>
<path d="M325.788 449.266C325.299 449.264 324.879 449.143 324.527 448.905C324.176 448.666 323.906 448.32 323.717 447.868C323.529 447.415 323.437 446.871 323.439 446.234C323.439 445.6 323.532 445.059 323.72 444.612C323.909 444.165 324.179 443.825 324.529 443.592C324.882 443.357 325.301 443.24 325.788 443.24C326.275 443.24 326.693 443.357 327.044 443.592C327.396 443.827 327.667 444.168 327.856 444.615C328.046 445.06 328.139 445.6 328.137 446.234C328.137 446.873 328.043 447.418 327.853 447.871C327.666 448.323 327.397 448.669 327.047 448.908C326.696 449.146 326.277 449.266 325.788 449.266ZM325.788 448.246C326.121 448.246 326.387 448.078 326.586 447.743C326.785 447.408 326.884 446.905 326.882 446.234C326.882 445.793 326.836 445.426 326.745 445.132C326.656 444.838 326.529 444.618 326.365 444.47C326.202 444.322 326.01 444.248 325.788 444.248C325.457 444.248 325.191 444.414 324.993 444.746C324.794 445.077 324.693 445.573 324.691 446.234C324.691 446.681 324.736 447.054 324.825 447.354C324.916 447.651 325.044 447.874 325.208 448.024C325.373 448.172 325.566 448.246 325.788 448.246ZM328.926 448.115V447.146L331.355 443.32H332.191V444.66H331.696L330.165 447.084V447.129H333.617V448.115H328.926ZM331.719 449.138V447.82L331.742 447.391V443.32H332.895V449.138H331.719Z" fill="#5F5C5C"/>
<path d="M143 421.805H151.06C152.744 421.805 154.344 422.546 155.434 423.83L155.619 424.049C156.592 425.194 158.018 425.854 159.521 425.854V425.854C160.973 425.854 162.357 425.238 163.327 424.158L164.278 423.1C165.045 422.246 165.981 421.561 167.027 421.087L170.9 419.331L174.352 418.307C176.032 417.809 177.838 417.963 179.408 418.74V418.74C180.198 419.13 180.907 419.668 181.496 420.323L182.085 420.978C182.579 421.528 183.02 422.125 183.4 422.76L185.254 425.854L186.221 427.467C187.169 429.05 188.596 430.292 190.296 431.012V431.012C191.372 431.468 192.528 431.703 193.697 431.703H194.229C195.241 431.703 196.239 431.47 197.147 431.021V431.021C198.602 430.301 199.74 429.07 200.342 427.562L200.4 427.417C200.81 426.39 201.458 425.475 202.291 424.747L203.186 423.965C203.631 423.575 204.046 423.154 204.429 422.703L205.809 421.077C206.785 419.928 208.007 419.013 209.384 418.4L210.205 418.034C210.95 417.703 211.756 417.532 212.571 417.532V417.532C213.989 417.532 215.358 417.014 216.422 416.076L218.027 414.659C219.708 413.176 221.871 412.358 224.112 412.358V412.358C225.677 412.358 227.215 412.757 228.583 413.518L229.936 414.271C231.129 414.934 232.47 415.282 233.835 415.282V415.282C235.124 415.282 236.395 414.971 237.539 414.375L240.795 412.68C243.529 411.256 246.848 411.596 249.236 413.545V413.545C250.613 414.668 252.336 415.282 254.113 415.282H259.962C260.826 415.282 261.682 415.108 262.477 414.77V414.77C265.645 413.422 269.312 414.812 270.791 417.922L271.268 418.925C274.073 424.826 282.533 424.649 285.089 418.635L286.726 414.782C287.4 413.196 288.494 411.824 289.89 410.815L295.843 406.509L302.519 402.641C304.503 401.491 306.755 400.886 309.048 400.886V400.886C310.742 400.886 312.419 400.555 313.986 399.913L319.296 397.737L329 394.138" stroke="#8DFCAC" stroke-width="3" stroke-linecap="round"/>
<circle cx="328" cy="392.138" r="11" fill="#D3FFE0"/>
<g filter="url(#filter2_d_40_1457)">
<circle cx="328" cy="392.138" r="5" fill="#ECFFF2"/>
<circle cx="328" cy="392.138" r="4" stroke="#006D1F" stroke-width="2"/>
</g>
</g>
<g filter="url(#filter3_d_40_1457)">
<g clip-path="url(#clip0_40_1457)">
<rect x="9" y="12.3721" width="316" height="300" rx="16" fill="#171724"/>
<rect opacity="0.8" x="209.62" y="68.4346" width="34.4304" height="187.342" rx="17.2152" fill="url(#paint4_linear_40_1457)"/>
<path opacity="0.3" d="M31.8984 75.0168V244.131" stroke="#454459" stroke-width="2"/>
<path opacity="0.3" d="M67.3418 75.0168V244.131" stroke="#454459" stroke-width="2"/>
<path opacity="0.3" d="M173.671 75.0168V244.131" stroke="#454459" stroke-width="2"/>
<path opacity="0.3" d="M102.785 75.0168V244.131" stroke="#454459" stroke-width="2"/>
<path opacity="0.3" d="M209.114 75.0168V244.131" stroke="#454459" stroke-width="2"/>
<path opacity="0.3" d="M138.228 75.0168V244.131" stroke="#454459" stroke-width="2"/>
<path opacity="0.3" d="M244.557 75.0168V244.131" stroke="#454459" stroke-width="2"/>
<path opacity="0.3" d="M280 75.0168V244.131" stroke="#454459" stroke-width="2"/>
<g opacity="0.2" filter="url(#filter4_f_40_1457)">
<path d="M0 162.729C13.5448 167.376 22.7136 174.467 36.962 175.894C66.4671 178.847 77.7659 142.37 107.089 146.78C132.038 150.532 135.047 182.386 160.253 183.488C183.977 184.526 191.646 158.425 226.329 153.868" stroke="url(#paint5_linear_40_1457)" stroke-width="7"/>
</g>
<path d="M0.759766 159.574C14.3045 164.221 23.4733 171.312 37.7218 172.739C67.2268 175.692 78.5256 139.215 107.848 143.625C132.798 147.377 135.807 179.231 161.013 180.333C184.737 181.371 192.405 155.27 227.089 150.713" stroke="url(#paint6_linear_40_1457)" stroke-width="7"/>
<g filter="url(#filter5_d_40_1457)">
<circle cx="226.835" cy="150.46" r="9.62025" fill="#171724"/>
<circle cx="226.835" cy="150.46" r="5.62025" stroke="url(#paint7_linear_40_1457)" stroke-width="8"/>
</g>
<path opacity="0.5" d="M39.3103 260.7H40.5056V254.46H40.5467L43.0955 260.7H44.0681L46.617 254.46H46.658V260.7H47.8533V252.245H46.3416L43.5994 258.995H43.5642L40.8279 252.245H39.3103V260.7ZM51.908 260.823C53.6717 260.823 54.8318 259.605 54.8318 257.618V257.607C54.8318 255.632 53.6599 254.419 51.9021 254.419C50.1502 254.419 48.9842 255.638 48.9842 257.607V257.618C48.9842 259.599 50.1384 260.823 51.908 260.823ZM51.9138 259.763C50.9236 259.763 50.2791 258.984 50.2791 257.618V257.607C50.2791 256.259 50.9295 255.48 51.9021 255.48C52.8924 255.48 53.5369 256.259 53.5369 257.607V257.618C53.5369 258.978 52.9041 259.763 51.9138 259.763ZM55.8103 260.7H57.0759V257.109C57.0759 256.148 57.6502 255.503 58.5408 255.503C59.4197 255.503 59.8533 256.025 59.8533 256.95V260.7H61.1248V256.71C61.1248 255.292 60.3455 254.419 58.992 254.419C58.0603 254.419 57.4275 254.841 57.1052 255.468H57.0759V254.536H55.8103V260.7Z" fill="white"/>
<path opacity="0.5" d="M186.439 260.7H187.751V257.161H191.384V256.054H187.751V253.376H191.718V252.245H186.439V260.7ZM192.708 260.7H193.974V257.027C193.974 256.107 194.478 255.573 195.292 255.573C195.538 255.573 195.761 255.603 195.86 255.644V254.466C195.761 254.448 195.603 254.419 195.421 254.419C194.718 254.419 194.202 254.87 194.003 255.591H193.974V254.536H192.708V260.7ZM197.331 253.587C197.747 253.587 198.069 253.259 198.069 252.861C198.069 252.456 197.747 252.128 197.331 252.128C196.921 252.128 196.593 252.456 196.593 252.861C196.593 253.259 196.921 253.587 197.331 253.587ZM196.698 260.7H197.964V254.536H196.698V260.7Z" fill="white"/>
<path opacity="0.5" d="M79.2896 260.7H80.6021V253.376H83.1861V252.245H76.6998V253.376H79.2896V260.7ZM85.0787 260.823C86.0162 260.823 86.6431 260.396 86.9654 259.775H86.9947V260.7H88.2662V254.536H86.9947V258.134C86.9947 259.095 86.4205 259.734 85.5299 259.734C84.6509 259.734 84.2174 259.218 84.2174 258.286V254.536H82.9517V258.532C82.9517 259.95 83.7252 260.823 85.0787 260.823ZM92.1509 260.823C93.6451 260.823 94.5943 259.933 94.7935 258.954L94.8052 258.89H93.6041L93.5865 258.937C93.4283 259.4 92.9302 259.786 92.1802 259.786C91.1724 259.786 90.5338 259.107 90.5103 257.941H94.8756V257.513C94.8756 255.661 93.815 254.419 92.0865 254.419C90.358 254.419 89.2447 255.708 89.2447 257.636V257.642C89.2447 259.587 90.3404 260.823 92.1509 260.823ZM92.0924 255.456C92.9185 255.456 93.5162 255.978 93.6217 257.044H90.5279C90.6392 256.013 91.272 255.456 92.0924 255.456Z" fill="white"/>
<path opacity="0.5" d="M111.661 260.7H112.921L114.743 254.325H114.772L116.589 260.7H117.848L120.134 252.245H118.768L117.192 258.872H117.163L115.376 252.245H114.134L112.346 258.872H112.323L110.747 252.245H109.382L111.661 260.7ZM122.987 260.823C124.481 260.823 125.43 259.933 125.63 258.954L125.641 258.89H124.44L124.423 258.937C124.264 259.4 123.766 259.786 123.016 259.786C122.009 259.786 121.37 259.107 121.346 257.941H125.712V257.513C125.712 255.661 124.651 254.419 122.923 254.419C121.194 254.419 120.081 255.708 120.081 257.636V257.642C120.081 259.587 121.177 260.823 122.987 260.823ZM122.928 255.456C123.755 255.456 124.352 255.978 124.458 257.044H121.364C121.475 256.013 122.108 255.456 122.928 255.456ZM128.999 260.823C129.884 260.823 130.563 260.378 130.932 259.657H130.956V260.7H132.227V252.245H130.956V255.585H130.932C130.563 254.859 129.86 254.419 128.987 254.419C127.44 254.419 126.421 255.65 126.421 257.613V257.618C126.421 259.581 127.428 260.823 128.999 260.823ZM129.333 259.734C128.331 259.734 127.716 258.931 127.716 257.618V257.613C127.716 256.312 128.337 255.503 129.333 255.503C130.282 255.503 130.962 256.335 130.962 257.613V257.618C130.962 258.902 130.288 259.734 129.333 259.734Z" fill="white"/>
<path d="M221.163 245.657C223.295 245.657 224.573 244.626 224.573 243.003V242.997C224.573 241.667 223.776 240.946 222.006 240.594L221.11 240.413C220.137 240.219 219.704 239.909 219.704 239.376V239.37C219.704 238.766 220.249 238.35 221.157 238.344C222.03 238.344 222.639 238.749 222.727 239.411L222.733 239.481H224.403L224.397 239.37C224.315 237.887 223.114 236.909 221.157 236.909C219.282 236.909 217.934 237.928 217.934 239.475V239.481C217.934 240.753 218.778 241.55 220.448 241.884L221.338 242.059C222.387 242.276 222.803 242.563 222.803 243.137V243.143C222.803 243.788 222.188 244.216 221.21 244.216C220.243 244.216 219.545 243.805 219.434 243.149L219.422 243.085H217.753L217.758 243.178C217.858 244.737 219.153 245.657 221.163 245.657ZM227.379 245.61C228.206 245.61 228.874 245.218 229.231 244.573H229.266V245.51H230.977V241.204C230.977 239.938 229.928 239.1 228.305 239.1C226.647 239.1 225.651 239.932 225.557 241.093L225.551 241.163H227.116L227.128 241.11C227.21 240.706 227.596 240.407 228.235 240.407C228.903 240.407 229.266 240.753 229.266 241.309V241.696L227.713 241.79C226.155 241.889 225.27 242.557 225.27 243.7V243.712C225.27 244.819 226.12 245.61 227.379 245.61ZM226.963 243.624V243.612C226.963 243.167 227.309 242.885 227.971 242.844L229.266 242.762V243.214C229.266 243.87 228.704 244.362 227.936 244.362C227.344 244.362 226.963 244.087 226.963 243.624ZM234.581 245.639C234.938 245.639 235.213 245.604 235.407 245.575V244.321C235.301 244.333 235.19 244.35 235.038 244.35C234.522 244.35 234.258 244.151 234.258 243.565V240.518H235.407V239.229H234.258V237.694H232.53V239.229H231.657V240.518H232.53V243.753C232.53 245.1 233.186 245.639 234.581 245.639Z" fill="white"/>
<path opacity="0.5" d="M149.449 260.7H150.762V253.376H153.346V252.245H146.859V253.376H149.449V260.7ZM154.313 260.7H155.578V257.132C155.578 256.171 156.158 255.503 157.031 255.503C157.922 255.503 158.438 256.113 158.438 257.132V260.7H159.703V256.892C159.703 255.404 158.836 254.419 157.518 254.419C156.598 254.419 155.936 254.835 155.607 255.55H155.578V252.245H154.313V260.7ZM163.031 260.823C163.969 260.823 164.596 260.396 164.918 259.775H164.947V260.7H166.219V254.536H164.947V258.134C164.947 259.095 164.373 259.734 163.482 259.734C162.604 259.734 162.17 259.218 162.17 258.286V254.536H160.904V258.532C160.904 259.95 161.678 260.823 163.031 260.823Z" fill="white"/>
<path opacity="0.5" d="M256.517 260.841C258.521 260.841 259.739 259.863 259.739 258.322V258.316C259.739 257.009 258.989 256.3 257.243 255.931L256.317 255.738C255.263 255.509 254.782 255.122 254.782 254.49V254.484C254.782 253.745 255.45 253.247 256.499 253.241C257.501 253.241 258.181 253.716 258.298 254.501L258.304 254.583H259.581L259.575 254.484C259.487 253.066 258.28 252.105 256.517 252.105C254.73 252.105 253.458 253.095 253.452 254.536V254.542C253.452 255.796 254.255 256.558 255.913 256.909L256.833 257.103C257.952 257.349 258.415 257.718 258.415 258.398V258.404C258.415 259.195 257.7 259.704 256.569 259.704C255.439 259.704 254.659 259.218 254.542 258.439L254.53 258.363H253.253L253.259 258.45C253.364 259.939 254.618 260.841 256.517 260.841ZM262.868 260.823C263.806 260.823 264.433 260.396 264.755 259.775H264.784V260.7H266.056V254.536H264.784V258.134C264.784 259.095 264.21 259.734 263.319 259.734C262.44 259.734 262.007 259.218 262.007 258.286V254.536H260.741V258.532C260.741 259.95 261.515 260.823 262.868 260.823ZM267.31 260.7H268.575V257.109C268.575 256.148 269.149 255.503 270.04 255.503C270.919 255.503 271.353 256.025 271.353 256.95V260.7H272.624V256.71C272.624 255.292 271.845 254.419 270.491 254.419C269.56 254.419 268.927 254.841 268.605 255.468H268.575V254.536H267.31V260.7Z" fill="white"/>
<path d="M226.836 167.928V230.966" stroke="url(#paint8_linear_40_1457)"/>
</g>
</g>
<g filter="url(#filter6_d_40_1457)">
<rect x="395" y="346.138" width="286" height="77" rx="20" fill="white" shape-rendering="crispEdges"/>
<rect x="410.534" y="363.969" width="15.338" height="15.338" rx="3.06759" fill="#420DD7"/>
<path d="M414.752 372.174L416.943 374.322L421.654 368.953" stroke="white" stroke-width="1.5338" stroke-linecap="round" stroke-linejoin="round"/>
<path d="M438.255 366.578V377.138H436.047V366.578H438.255ZM440.729 377.138V369.138H442.697L442.825 371.538L442.553 371.282C442.681 370.759 442.884 370.327 443.161 369.986C443.438 369.644 443.774 369.394 444.169 369.234C444.574 369.063 445.017 368.978 445.497 368.978C446.052 368.978 446.542 369.084 446.969 369.298C447.406 369.511 447.748 369.836 447.993 370.274C448.249 370.7 448.377 371.239 448.377 371.89V377.138H446.185V372.514C446.185 371.831 446.052 371.362 445.785 371.106C445.518 370.839 445.172 370.706 444.745 370.706C444.446 370.706 444.153 370.78 443.865 370.93C443.588 371.068 443.358 371.298 443.177 371.618C443.006 371.938 442.921 372.364 442.921 372.898V377.138H440.729ZM454.267 368.978C454.982 368.978 455.585 369.084 456.075 369.298C456.577 369.5 456.977 369.783 457.275 370.146C457.585 370.498 457.803 370.892 457.931 371.33L455.883 372.066C455.777 371.586 455.595 371.223 455.339 370.978C455.083 370.732 454.737 370.61 454.299 370.61C453.894 370.61 453.547 370.706 453.259 370.898C452.971 371.079 452.753 371.362 452.603 371.746C452.454 372.119 452.379 372.588 452.379 373.154C452.379 373.719 452.454 374.188 452.603 374.562C452.763 374.935 452.987 375.212 453.275 375.394C453.574 375.575 453.921 375.666 454.315 375.666C454.635 375.666 454.907 375.612 455.131 375.506C455.355 375.388 455.537 375.223 455.675 375.01C455.825 374.796 455.926 374.54 455.979 374.242L457.963 374.882C457.846 375.362 457.627 375.783 457.307 376.146C456.987 376.508 456.577 376.791 456.075 376.994C455.574 377.196 454.993 377.298 454.331 377.298C453.51 377.298 452.785 377.132 452.155 376.802C451.526 376.471 451.041 375.996 450.699 375.378C450.358 374.759 450.187 374.012 450.187 373.138C450.187 372.263 450.358 371.516 450.699 370.898C451.041 370.279 451.521 369.804 452.139 369.474C452.758 369.143 453.467 368.978 454.267 368.978ZM459.667 377.138V369.138H461.571L461.715 370.706C461.928 370.151 462.237 369.724 462.643 369.426C463.059 369.127 463.576 368.978 464.195 368.978C464.376 368.978 464.541 368.994 464.691 369.026C464.84 369.058 464.963 369.1 465.059 369.154L464.803 370.994C464.696 370.951 464.563 370.919 464.403 370.898C464.253 370.876 464.056 370.866 463.811 370.866C463.491 370.866 463.181 370.946 462.883 371.106C462.584 371.255 462.339 371.49 462.147 371.81C461.955 372.119 461.859 372.514 461.859 372.994V377.138H459.667ZM469.972 377.298C469.13 377.298 468.394 377.132 467.764 376.802C467.146 376.471 466.666 375.996 466.324 375.378C465.983 374.759 465.812 374.012 465.812 373.138C465.812 372.263 465.983 371.516 466.324 370.898C466.666 370.279 467.14 369.804 467.748 369.474C468.367 369.143 469.071 368.978 469.86 368.978C470.671 368.978 471.359 369.143 471.924 369.474C472.49 369.794 472.922 370.236 473.22 370.802C473.519 371.356 473.668 371.991 473.668 372.706C473.668 372.919 473.663 373.122 473.652 373.314C473.642 373.506 473.626 373.676 473.604 373.826H467.22V372.306H472.644L471.588 372.69C471.588 372.018 471.434 371.5 471.124 371.138C470.826 370.775 470.399 370.594 469.844 370.594C469.439 370.594 469.087 370.69 468.788 370.882C468.5 371.074 468.282 371.362 468.132 371.746C467.983 372.119 467.908 372.594 467.908 373.17C467.908 373.735 467.988 374.204 468.148 374.578C468.319 374.94 468.554 375.212 468.852 375.394C469.162 375.575 469.53 375.666 469.956 375.666C470.426 375.666 470.804 375.575 471.092 375.394C471.38 375.212 471.604 374.962 471.764 374.642L473.508 375.314C473.338 375.73 473.076 376.087 472.724 376.386C472.383 376.684 471.972 376.914 471.492 377.074C471.023 377.223 470.516 377.298 469.972 377.298ZM480.086 372.034C480.086 371.575 479.953 371.218 479.686 370.962C479.43 370.706 479.089 370.578 478.662 370.578C478.267 370.578 477.921 370.679 477.622 370.882C477.323 371.084 477.105 371.42 476.966 371.89L475.094 371.314C475.275 370.61 475.67 370.044 476.278 369.618C476.897 369.191 477.723 368.978 478.758 368.978C479.462 368.978 480.075 369.09 480.598 369.314C481.121 369.527 481.526 369.852 481.814 370.29C482.113 370.727 482.262 371.276 482.262 371.938V375.186C482.262 375.591 482.454 375.794 482.838 375.794C483.019 375.794 483.19 375.767 483.35 375.714L483.222 377.074C482.945 377.212 482.598 377.282 482.182 377.282C481.809 377.282 481.473 377.218 481.174 377.09C480.875 376.962 480.641 376.77 480.47 376.514C480.299 376.247 480.214 375.916 480.214 375.522V375.458L480.598 375.394C480.534 375.799 480.358 376.146 480.07 376.434C479.782 376.711 479.43 376.924 479.014 377.074C478.609 377.223 478.187 377.298 477.75 377.298C477.206 377.298 476.737 377.218 476.342 377.058C475.947 376.887 475.643 376.642 475.43 376.322C475.217 376.002 475.11 375.607 475.11 375.138C475.11 374.54 475.302 374.055 475.686 373.682C476.07 373.298 476.619 373.036 477.334 372.898L480.342 372.29L480.326 373.65L478.406 374.034C478.043 374.108 477.766 374.21 477.574 374.338C477.393 374.455 477.302 374.652 477.302 374.93C477.302 375.196 477.398 375.399 477.59 375.538C477.793 375.676 478.033 375.746 478.31 375.746C478.534 375.746 478.753 375.719 478.966 375.666C479.179 375.612 479.371 375.527 479.542 375.41C479.713 375.292 479.846 375.132 479.942 374.93C480.038 374.727 480.086 374.482 480.086 374.194V372.034ZM487.914 377.298C487.103 377.298 486.362 377.154 485.69 376.866C485.028 376.578 484.49 376.172 484.074 375.65L485.338 374.37C485.594 374.754 485.935 375.068 486.362 375.314C486.788 375.559 487.295 375.682 487.882 375.682C488.298 375.682 488.628 375.623 488.874 375.506C489.13 375.378 489.258 375.18 489.258 374.914C489.258 374.743 489.199 374.599 489.082 374.482C488.964 374.354 488.73 374.252 488.378 374.178L486.97 373.89C486.042 373.698 485.38 373.41 484.986 373.026C484.602 372.631 484.41 372.124 484.41 371.506C484.41 371.068 484.538 370.658 484.794 370.274C485.06 369.89 485.455 369.58 485.978 369.346C486.5 369.1 487.151 368.978 487.93 368.978C488.73 368.978 489.423 369.106 490.01 369.362C490.607 369.607 491.076 369.975 491.418 370.466L490.106 371.746C489.871 371.372 489.562 371.09 489.178 370.898C488.804 370.695 488.41 370.594 487.994 370.594C487.695 370.594 487.439 370.626 487.226 370.69C487.012 370.754 486.852 370.844 486.746 370.962C486.639 371.068 486.586 371.207 486.586 371.378C486.586 371.548 486.66 371.698 486.81 371.826C486.959 371.943 487.231 372.044 487.626 372.13L489.258 372.466C490.047 372.626 490.612 372.898 490.954 373.282C491.295 373.655 491.466 374.108 491.466 374.642C491.466 375.154 491.327 375.612 491.05 376.018C490.783 376.412 490.383 376.727 489.85 376.962C489.327 377.186 488.682 377.298 487.914 377.298ZM496.894 377.298C496.052 377.298 495.316 377.132 494.686 376.802C494.068 376.471 493.588 375.996 493.246 375.378C492.905 374.759 492.734 374.012 492.734 373.138C492.734 372.263 492.905 371.516 493.246 370.898C493.588 370.279 494.062 369.804 494.67 369.474C495.289 369.143 495.993 368.978 496.782 368.978C497.593 368.978 498.281 369.143 498.846 369.474C499.412 369.794 499.844 370.236 500.142 370.802C500.441 371.356 500.59 371.991 500.59 372.706C500.59 372.919 500.585 373.122 500.574 373.314C500.564 373.506 500.548 373.676 500.526 373.826H494.142V372.306H499.566L498.51 372.69C498.51 372.018 498.356 371.5 498.046 371.138C497.748 370.775 497.321 370.594 496.766 370.594C496.361 370.594 496.009 370.69 495.71 370.882C495.422 371.074 495.204 371.362 495.054 371.746C494.905 372.119 494.83 372.594 494.83 373.17C494.83 373.735 494.91 374.204 495.07 374.578C495.241 374.94 495.476 375.212 495.774 375.394C496.084 375.575 496.452 375.666 496.878 375.666C497.348 375.666 497.726 375.575 498.014 375.394C498.302 375.212 498.526 374.962 498.686 374.642L500.43 375.314C500.26 375.73 499.998 376.087 499.646 376.386C499.305 376.684 498.894 376.914 498.414 377.074C497.945 377.223 497.438 377.298 496.894 377.298ZM505.472 377.298C504.811 377.298 504.219 377.132 503.696 376.802C503.184 376.471 502.779 375.996 502.48 375.378C502.192 374.759 502.048 374.018 502.048 373.154C502.048 372.268 502.203 371.516 502.512 370.898C502.821 370.268 503.237 369.794 503.76 369.474C504.293 369.143 504.891 368.978 505.552 368.978C506.256 368.978 506.837 369.18 507.296 369.586C507.755 369.991 508.053 370.514 508.192 371.154L507.984 371.41V365.634H510.176V377.138H508.208L508.064 374.706L508.336 374.834C508.261 375.335 508.091 375.772 507.824 376.146C507.557 376.508 507.221 376.791 506.816 376.994C506.411 377.196 505.963 377.298 505.472 377.298ZM506.112 375.618C506.496 375.618 506.827 375.522 507.104 375.33C507.381 375.127 507.595 374.834 507.744 374.45C507.904 374.066 507.984 373.607 507.984 373.074C507.984 372.562 507.909 372.13 507.76 371.778C507.611 371.415 507.397 371.138 507.12 370.946C506.843 370.754 506.517 370.658 506.144 370.658C505.547 370.658 505.077 370.871 504.736 371.298C504.405 371.714 504.24 372.327 504.24 373.138C504.24 373.948 504.405 374.567 504.736 374.994C505.067 375.41 505.525 375.618 506.112 375.618ZM521.082 377.298C520.239 377.298 519.503 377.132 518.874 376.802C518.255 376.471 517.775 375.996 517.434 375.378C517.092 374.759 516.922 374.012 516.922 373.138C516.922 372.263 517.092 371.516 517.434 370.898C517.775 370.279 518.25 369.804 518.858 369.474C519.476 369.143 520.18 368.978 520.97 368.978C521.78 368.978 522.468 369.143 523.034 369.474C523.599 369.794 524.031 370.236 524.33 370.802C524.628 371.356 524.778 371.991 524.778 372.706C524.778 372.919 524.772 373.122 524.762 373.314C524.751 373.506 524.735 373.676 524.714 373.826H518.33V372.306H523.754L522.698 372.69C522.698 372.018 522.543 371.5 522.234 371.138C521.935 370.775 521.508 370.594 520.954 370.594C520.548 370.594 520.196 370.69 519.898 370.882C519.61 371.074 519.391 371.362 519.242 371.746C519.092 372.119 519.018 372.594 519.018 373.17C519.018 373.735 519.098 374.204 519.258 374.578C519.428 374.94 519.663 375.212 519.962 375.394C520.271 375.575 520.639 375.666 521.066 375.666C521.535 375.666 521.914 375.575 522.202 375.394C522.49 375.212 522.714 374.962 522.874 374.642L524.618 375.314C524.447 375.73 524.186 376.087 523.834 376.386C523.492 376.684 523.082 376.914 522.602 377.074C522.132 377.223 521.626 377.298 521.082 377.298ZM530.157 365.474C530.53 365.474 530.866 365.516 531.165 365.602C531.474 365.676 531.703 365.772 531.853 365.89L531.549 367.346C531.431 367.271 531.298 367.212 531.149 367.17C530.999 367.127 530.823 367.106 530.621 367.106C530.205 367.106 529.874 367.202 529.629 367.394C529.383 367.575 529.261 367.89 529.261 368.338V369.442L529.357 369.874V377.138H527.165V368.178C527.165 367.73 527.239 367.335 527.389 366.994C527.538 366.652 527.746 366.37 528.013 366.146C528.279 365.922 528.594 365.756 528.957 365.65C529.33 365.532 529.73 365.474 530.157 365.474ZM531.789 369.138V370.77H525.773V369.138H531.789ZM536.541 365.474C536.914 365.474 537.25 365.516 537.549 365.602C537.858 365.676 538.087 365.772 538.237 365.89L537.933 367.346C537.815 367.271 537.682 367.212 537.533 367.17C537.383 367.127 537.207 367.106 537.005 367.106C536.589 367.106 536.258 367.202 536.013 367.394C535.767 367.575 535.645 367.89 535.645 368.338V369.442L535.741 369.874V377.138H533.549V368.178C533.549 367.73 533.623 367.335 533.773 366.994C533.922 366.652 534.13 366.37 534.397 366.146C534.663 365.922 534.978 365.756 535.341 365.65C535.714 365.532 536.114 365.474 536.541 365.474ZM538.173 369.138V370.77H532.157V369.138H538.173ZM540.589 367.986C540.13 367.986 539.789 367.89 539.565 367.698C539.341 367.495 539.229 367.202 539.229 366.818C539.229 366.423 539.341 366.13 539.565 365.938C539.789 365.735 540.13 365.634 540.589 365.634C541.047 365.634 541.389 365.735 541.613 365.938C541.837 366.13 541.949 366.423 541.949 366.818C541.949 367.202 541.837 367.495 541.613 367.698C541.389 367.89 541.047 367.986 540.589 367.986ZM541.677 369.138V377.138H539.485V369.138H541.677ZM547.627 368.978C548.341 368.978 548.944 369.084 549.435 369.298C549.936 369.5 550.336 369.783 550.635 370.146C550.944 370.498 551.163 370.892 551.291 371.33L549.243 372.066C549.136 371.586 548.955 371.223 548.699 370.978C548.443 370.732 548.096 370.61 547.659 370.61C547.253 370.61 546.907 370.706 546.619 370.898C546.331 371.079 546.112 371.362 545.963 371.746C545.813 372.119 545.739 372.588 545.739 373.154C545.739 373.719 545.813 374.188 545.963 374.562C546.123 374.935 546.347 375.212 546.635 375.394C546.933 375.575 547.28 375.666 547.675 375.666C547.995 375.666 548.267 375.612 548.491 375.506C548.715 375.388 548.896 375.223 549.035 375.01C549.184 374.796 549.285 374.54 549.339 374.242L551.323 374.882C551.205 375.362 550.987 375.783 550.667 376.146C550.347 376.508 549.936 376.791 549.435 376.994C548.933 377.196 548.352 377.298 547.691 377.298C546.869 377.298 546.144 377.132 545.515 376.802C544.885 376.471 544.4 375.996 544.059 375.378C543.717 374.759 543.547 374.012 543.547 373.138C543.547 372.263 543.717 371.516 544.059 370.898C544.4 370.279 544.88 369.804 545.499 369.474C546.117 369.143 546.827 368.978 547.627 368.978ZM554.13 367.986C553.671 367.986 553.33 367.89 553.106 367.698C552.882 367.495 552.77 367.202 552.77 366.818C552.77 366.423 552.882 366.13 553.106 365.938C553.33 365.735 553.671 365.634 554.13 365.634C554.589 365.634 554.93 365.735 555.154 365.938C555.378 366.13 555.49 366.423 555.49 366.818C555.49 367.202 555.378 367.495 555.154 367.698C554.93 367.89 554.589 367.986 554.13 367.986ZM555.218 369.138V377.138H553.026V369.138H555.218ZM561.254 377.298C560.411 377.298 559.675 377.132 559.046 376.802C558.427 376.471 557.947 375.996 557.606 375.378C557.264 374.759 557.094 374.012 557.094 373.138C557.094 372.263 557.264 371.516 557.606 370.898C557.947 370.279 558.422 369.804 559.03 369.474C559.648 369.143 560.352 368.978 561.142 368.978C561.952 368.978 562.64 369.143 563.206 369.474C563.771 369.794 564.203 370.236 564.502 370.802C564.8 371.356 564.95 371.991 564.95 372.706C564.95 372.919 564.944 373.122 564.934 373.314C564.923 373.506 564.907 373.676 564.886 373.826H558.502V372.306H563.926L562.87 372.69C562.87 372.018 562.715 371.5 562.406 371.138C562.107 370.775 561.68 370.594 561.126 370.594C560.72 370.594 560.368 370.69 560.07 370.882C559.782 371.074 559.563 371.362 559.414 371.746C559.264 372.119 559.19 372.594 559.19 373.17C559.19 373.735 559.27 374.204 559.43 374.578C559.6 374.94 559.835 375.212 560.134 375.394C560.443 375.575 560.811 375.666 561.238 375.666C561.707 375.666 562.086 375.575 562.374 375.394C562.662 375.212 562.886 374.962 563.046 374.642L564.79 375.314C564.619 375.73 564.358 376.087 564.006 376.386C563.664 376.684 563.254 376.914 562.774 377.074C562.304 377.223 561.798 377.298 561.254 377.298ZM566.807 377.138V369.138H568.775L568.903 371.538L568.631 371.282C568.759 370.759 568.962 370.327 569.239 369.986C569.517 369.644 569.853 369.394 570.247 369.234C570.653 369.063 571.095 368.978 571.575 368.978C572.13 368.978 572.621 369.084 573.047 369.298C573.485 369.511 573.826 369.836 574.071 370.274C574.327 370.7 574.455 371.239 574.455 371.89V377.138H572.263V372.514C572.263 371.831 572.13 371.362 571.863 371.106C571.597 370.839 571.25 370.706 570.823 370.706C570.525 370.706 570.231 370.78 569.943 370.93C569.666 371.068 569.437 371.298 569.255 371.618C569.085 371.938 568.999 372.364 568.999 372.898V377.138H566.807ZM580.346 368.978C581.06 368.978 581.663 369.084 582.154 369.298C582.655 369.5 583.055 369.783 583.354 370.146C583.663 370.498 583.882 370.892 584.01 371.33L581.962 372.066C581.855 371.586 581.674 371.223 581.418 370.978C581.162 370.732 580.815 370.61 580.378 370.61C579.972 370.61 579.626 370.706 579.338 370.898C579.05 371.079 578.831 371.362 578.682 371.746C578.532 372.119 578.458 372.588 578.458 373.154C578.458 373.719 578.532 374.188 578.682 374.562C578.842 374.935 579.066 375.212 579.354 375.394C579.652 375.575 579.999 375.666 580.394 375.666C580.714 375.666 580.986 375.612 581.21 375.506C581.434 375.388 581.615 375.223 581.754 375.01C581.903 374.796 582.004 374.54 582.058 374.242L584.042 374.882C583.924 375.362 583.706 375.783 583.386 376.146C583.066 376.508 582.655 376.791 582.154 376.994C581.652 377.196 581.071 377.298 580.41 377.298C579.588 377.298 578.863 377.132 578.234 376.802C577.604 376.471 577.119 375.996 576.778 375.378C576.436 374.759 576.266 374.012 576.266 373.138C576.266 372.263 576.436 371.516 576.778 370.898C577.119 370.279 577.599 369.804 578.218 369.474C578.836 369.143 579.546 368.978 580.346 368.978ZM593.077 369.138L589.845 377.634C589.589 378.359 589.301 378.935 588.981 379.362C588.672 379.788 588.309 380.098 587.893 380.29C587.488 380.482 587.003 380.578 586.437 380.578C586.021 380.578 585.637 380.524 585.285 380.418C584.944 380.322 584.645 380.194 584.389 380.034L584.853 378.45C585.056 378.61 585.269 378.722 585.493 378.786C585.717 378.86 585.973 378.898 586.261 378.898C586.56 378.898 586.816 378.834 587.029 378.706C587.253 378.578 587.44 378.322 587.589 377.938L587.861 377.25L586.981 375.17L584.533 369.138H586.965L588.485 373.938L588.901 375.538L589.397 373.842L590.853 369.138H593.077Z" fill="#4B4B4B"/>
<rect x="409" y="398.138" width="184" height="9" rx="4.5" fill="#E4E6EA"/>
<rect x="409.203" y="398.138" width="184" height="9" rx="4.5" fill="#420DD7"/>
</g>
<defs>
<filter id="filter0_d_40_1457" x="426.842" y="181.979" width="162.316" height="162.316" filterUnits="userSpaceOnUse" color-interpolation-filters="sRGB">
<feFlood flood-opacity="0" result="BackgroundImageFix"/>
<feColorMatrix in="SourceAlpha" type="matrix" values="0 0 0 0 0 0 0 0 0 0 0 0 0 0 0 0 0 0 127 0" result="hardAlpha"/>
<feOffset dy="5"/>
<feGaussianBlur stdDeviation="12.5"/>
<feColorMatrix type="matrix" values="0 0 0 0 0 0 0 0 0 0 0 0 0 0 0 0 0 0 0.1 0"/>
<feBlend mode="normal" in2="BackgroundImageFix" result="effect1_dropShadow_40_1457"/>
<feBlend mode="normal" in="SourceGraphic" in2="effect1_dropShadow_40_1457" result="shape"/>
</filter>
<filter id="filter1_d_40_1457" x="118" y="324.138" width="267" height="156" filterUnits="userSpaceOnUse" color-interpolation-filters="sRGB">
<feFlood flood-opacity="0" result="BackgroundImageFix"/>
<feColorMatrix in="SourceAlpha" type="matrix" values="0 0 0 0 0 0 0 0 0 0 0 0 0 0 0 0 0 0 127 0" result="hardAlpha"/>
<feOffset dx="7" dy="4"/>
<feGaussianBlur stdDeviation="8"/>
<feComposite in2="hardAlpha" operator="out"/>
<feColorMatrix type="matrix" values="0 0 0 0 0 0 0 0 0 0 0 0 0 0 0 0 0 0 0.06 0"/>
<feBlend mode="normal" in2="BackgroundImageFix" result="effect1_dropShadow_40_1457"/>
<feBlend mode="normal" in="SourceGraphic" in2="effect1_dropShadow_40_1457" result="shape"/>
</filter>
<filter id="filter2_d_40_1457" x="317" y="387.138" width="22" height="22" filterUnits="userSpaceOnUse" color-interpolation-filters="sRGB">
<feFlood flood-opacity="0" result="BackgroundImageFix"/>
<feColorMatrix in="SourceAlpha" type="matrix" values="0 0 0 0 0 0 0 0 0 0 0 0 0 0 0 0 0 0 127 0" result="hardAlpha"/>
<feOffset dy="6"/>
<feGaussianBlur stdDeviation="3"/>
<feComposite in2="hardAlpha" operator="out"/>
<feColorMatrix type="matrix" values="0 0 0 0 0 0 0 0 0 0 0 0 0 0 0 0 0 0 0.1 0"/>
<feBlend mode="normal" in2="BackgroundImageFix" result="effect1_dropShadow_40_1457"/>
<feBlend mode="normal" in="SourceGraphic" in2="effect1_dropShadow_40_1457" result="shape"/>
</filter>
<filter id="filter3_d_40_1457" x="0" y="0.37207" width="348" height="332" filterUnits="userSpaceOnUse" color-interpolation-filters="sRGB">
<feFlood flood-opacity="0" result="BackgroundImageFix"/>
<feColorMatrix in="SourceAlpha" type="matrix" values="0 0 0 0 0 0 0 0 0 0 0 0 0 0 0 0 0 0 127 0" result="hardAlpha"/>
<feOffset dx="7" dy="4"/>
<feGaussianBlur stdDeviation="8"/>
<feComposite in2="hardAlpha" operator="out"/>
<feColorMatrix type="matrix" values="0 0 0 0 0 0 0 0 0 0 0 0 0 0 0 0 0 0 0.06 0"/>
<feBlend mode="normal" in2="BackgroundImageFix" result="effect1_dropShadow_40_1457"/>
<feBlend mode="normal" in="SourceGraphic" in2="effect1_dropShadow_40_1457" result="shape"/>
</filter>
<filter id="filter4_f_40_1457" x="-15.1357" y="128.909" width="255.921" height="72.1089" filterUnits="userSpaceOnUse" color-interpolation-filters="sRGB">
<feFlood flood-opacity="0" result="BackgroundImageFix"/>
<feBlend mode="normal" in="SourceGraphic" in2="BackgroundImageFix" result="shape"/>
<feGaussianBlur stdDeviation="7" result="effect1_foregroundBlur_40_1457"/>
</filter>
<filter id="filter5_d_40_1457" x="192.215" y="120.84" width="69.2402" height="69.2405" filterUnits="userSpaceOnUse" color-interpolation-filters="sRGB">
<feFlood flood-opacity="0" result="BackgroundImageFix"/>
<feColorMatrix in="SourceAlpha" type="matrix" values="0 0 0 0 0 0 0 0 0 0 0 0 0 0 0 0 0 0 127 0" result="hardAlpha"/>
<feOffset dy="5"/>
<feGaussianBlur stdDeviation="12.5"/>
<feColorMatrix type="matrix" values="0 0 0 0 0 0 0 0 0 0 0 0 0 0 0 0 0 0 0.1 0"/>
<feBlend mode="normal" in2="BackgroundImageFix" result="effect1_dropShadow_40_1457"/>
<feBlend mode="normal" in="SourceGraphic" in2="effect1_dropShadow_40_1457" result="shape"/>
</filter>
<filter id="filter6_d_40_1457" x="386" y="324.138" width="318" height="109" filterUnits="userSpaceOnUse" color-interpolation-filters="sRGB">
<feFlood flood-opacity="0" result="BackgroundImageFix"/>
<feColorMatrix in="SourceAlpha" type="matrix" values="0 0 0 0 0 0 0 0 0 0 0 0 0 0 0 0 0 0 127 0" result="hardAlpha"/>
<feOffset dx="7" dy="-6"/>
<feGaussianBlur stdDeviation="8"/>
<feComposite in2="hardAlpha" operator="out"/>
<feColorMatrix type="matrix" values="0 0 0 0 0 0 0 0 0 0 0 0 0 0 0 0 0 0 0.06 0"/>
<feBlend mode="normal" in2="BackgroundImageFix" result="effect1_dropShadow_40_1457"/>
<feBlend mode="normal" in="SourceGraphic" in2="effect1_dropShadow_40_1457" result="shape"/>
</filter>
<linearGradient id="paint0_linear_40_1457" x1="508" y1="116.138" x2="508" y2="258.138" gradientUnits="userSpaceOnUse">
<stop stop-color="#FFD572"/>
<stop offset="1" stop-color="#FEBD38"/>
</linearGradient>
<linearGradient id="paint1_linear_40_1457" x1="508" y1="170.691" x2="508" y2="258.138" gradientUnits="userSpaceOnUse">
<stop stop-color="#FE6C6C"/>
<stop offset="1" stop-color="#FE464B"/>
</linearGradient>
<linearGradient id="paint2_linear_40_1457" x1="487.141" y1="116.138" x2="487.141" y2="258.138" gradientUnits="userSpaceOnUse">
<stop stop-color="#FF9364"/>
<stop offset="1" stop-color="#F25F33"/>
</linearGradient>
<linearGradient id="paint3_linear_40_1457" x1="508.401" y1="238.883" x2="508.401" y2="277.392" gradientUnits="userSpaceOnUse">
<stop stop-color="#FF9364"/>
<stop offset="1" stop-color="#F25F33"/>
</linearGradient>
<linearGradient id="paint4_linear_40_1457" x1="226.835" y1="68.4346" x2="226.835" y2="255.776" gradientUnits="userSpaceOnUse">
<stop stop-color="#99FFA3"/>
<stop offset="1" stop-color="#68EE76"/>
</linearGradient>
<linearGradient id="paint5_linear_40_1457" x1="113.165" y1="146.409" x2="113.165" y2="183.519" gradientUnits="userSpaceOnUse">
<stop stop-color="#99FFA3"/>
<stop offset="1" stop-color="#68EE76"/>
</linearGradient>
<linearGradient id="paint6_linear_40_1457" x1="113.924" y1="143.254" x2="113.924" y2="180.364" gradientUnits="userSpaceOnUse">
<stop stop-color="#99FFA3"/>
<stop offset="1" stop-color="#68EE76"/>
</linearGradient>
<linearGradient id="paint7_linear_40_1457" x1="226.835" y1="140.84" x2="226.835" y2="160.08" gradientUnits="userSpaceOnUse">
<stop stop-color="#99FFA3"/>
<stop offset="1" stop-color="#68EE76"/>
</linearGradient>
<linearGradient id="paint8_linear_40_1457" x1="227.336" y1="167.928" x2="227.336" y2="230.966" gradientUnits="userSpaceOnUse">
<stop stop-color="white" stop-opacity="0"/>
<stop offset="0.510417" stop-color="white"/>
<stop offset="1" stop-color="white" stop-opacity="0"/>
</linearGradient>
<clipPath id="clip0_40_1457">
<rect x="9" y="12.3721" width="316" height="300" rx="16" fill="white"/>
</clipPath>
</defs>
</svg>
