<svg width="756" height="606" viewBox="0 0 756 606" fill="none" xmlns="http://www.w3.org/2000/svg">
<g filter="url(#filter0_d_269_13323)">
<path d="M6 57.6016C6 46.5559 14.9543 37.6016 26 37.6016H730C741.046 37.6016 750 46.5559 750 57.6016V577.74C750 588.786 741.046 597.74 730 597.74H26C14.9543 597.74 6 588.786 6 577.74V57.6016Z" fill="#F7F8F9"/>
</g>
<path d="M226.162 445.014V444.119L229.523 440.44C229.917 440.009 230.242 439.635 230.497 439.317C230.753 438.995 230.941 438.694 231.064 438.412C231.19 438.127 231.253 437.829 231.253 437.517C231.253 437.159 231.167 436.849 230.995 436.587C230.825 436.325 230.593 436.123 230.298 435.981C230.004 435.838 229.672 435.767 229.304 435.767C228.913 435.767 228.572 435.848 228.28 436.011C227.992 436.17 227.768 436.393 227.609 436.682C227.453 436.97 227.375 437.308 227.375 437.696H226.202C226.202 437.099 226.339 436.576 226.615 436.125C226.89 435.674 227.264 435.323 227.738 435.071C228.215 434.819 228.751 434.693 229.344 434.693C229.941 434.693 230.469 434.819 230.93 435.071C231.391 435.323 231.752 435.663 232.014 436.09C232.276 436.518 232.406 436.993 232.406 437.517C232.406 437.892 232.339 438.258 232.203 438.616C232.07 438.97 231.838 439.366 231.507 439.804C231.178 440.238 230.723 440.768 230.139 441.395L227.852 443.841V443.92H232.585V445.014H226.162ZM237.96 445.153C237.211 445.153 236.573 444.95 236.046 444.542C235.519 444.131 235.116 443.536 234.838 442.757C234.559 441.975 234.42 441.03 234.42 439.923C234.42 438.823 234.559 437.883 234.838 437.104C235.119 436.322 235.524 435.726 236.051 435.315C236.581 434.9 237.217 434.693 237.96 434.693C238.702 434.693 239.337 434.9 239.864 435.315C240.394 435.726 240.798 436.322 241.077 437.104C241.359 437.883 241.499 438.823 241.499 439.923C241.499 441.03 241.36 441.975 241.082 442.757C240.803 443.536 240.401 444.131 239.874 444.542C239.347 444.95 238.709 445.153 237.96 445.153ZM237.96 444.06C238.702 444.06 239.279 443.702 239.69 442.986C240.101 442.27 240.306 441.249 240.306 439.923C240.306 439.042 240.212 438.291 240.023 437.671C239.837 437.051 239.569 436.579 239.218 436.254C238.87 435.929 238.45 435.767 237.96 435.767C237.224 435.767 236.649 436.13 236.235 436.856C235.82 437.578 235.613 438.601 235.613 439.923C235.613 440.805 235.706 441.554 235.892 442.17C236.077 442.787 236.344 443.256 236.692 443.577C237.043 443.899 237.466 444.06 237.96 444.06ZM246.968 434.832V445.014H245.735V436.125H245.676L243.19 437.776V436.523L245.735 434.832H246.968ZM253.158 445.153C252.475 445.153 251.872 445.032 251.348 444.79C250.828 444.545 250.422 444.209 250.13 443.781C249.839 443.35 249.694 442.86 249.698 442.31C249.694 441.879 249.779 441.481 249.951 441.116C250.124 440.749 250.359 440.442 250.657 440.197C250.959 439.948 251.295 439.791 251.666 439.724V439.665C251.179 439.539 250.791 439.265 250.503 438.844C250.215 438.42 250.072 437.938 250.075 437.398C250.072 436.881 250.203 436.418 250.468 436.011C250.733 435.603 251.098 435.281 251.562 435.046C252.029 434.811 252.561 434.693 253.158 434.693C253.748 434.693 254.275 434.811 254.739 435.046C255.203 435.281 255.567 435.603 255.833 436.011C256.101 436.418 256.237 436.881 256.24 437.398C256.237 437.938 256.089 438.42 255.798 438.844C255.509 439.265 255.127 439.539 254.649 439.665V439.724C255.017 439.791 255.349 439.948 255.644 440.197C255.939 440.442 256.174 440.749 256.35 441.116C256.525 441.481 256.615 441.879 256.618 442.31C256.615 442.86 256.466 443.35 256.171 443.781C255.879 444.209 255.473 444.545 254.953 444.79C254.436 445.032 253.837 445.153 253.158 445.153ZM253.158 444.06C253.619 444.06 254.016 443.985 254.351 443.836C254.686 443.687 254.944 443.476 255.127 443.205C255.309 442.933 255.402 442.615 255.405 442.25C255.402 441.865 255.302 441.526 255.107 441.231C254.911 440.936 254.644 440.704 254.306 440.535C253.972 440.366 253.589 440.281 253.158 440.281C252.724 440.281 252.336 440.366 251.995 440.535C251.656 440.704 251.39 440.936 251.194 441.231C251.002 441.526 250.907 441.865 250.911 442.25C250.907 442.615 250.995 442.933 251.174 443.205C251.356 443.476 251.617 443.687 251.955 443.836C252.293 443.985 252.694 444.06 253.158 444.06ZM253.158 439.227C253.522 439.227 253.846 439.154 254.127 439.008C254.412 438.863 254.636 438.659 254.798 438.397C254.961 438.135 255.044 437.829 255.047 437.477C255.044 437.133 254.963 436.833 254.803 436.577C254.644 436.319 254.424 436.12 254.142 435.981C253.861 435.838 253.532 435.767 253.158 435.767C252.777 435.767 252.444 435.838 252.159 435.981C251.874 436.12 251.653 436.319 251.497 436.577C251.342 436.833 251.265 437.133 251.269 437.477C251.265 437.829 251.343 438.135 251.502 438.397C251.665 438.659 251.888 438.863 252.173 439.008C252.459 439.154 252.787 439.227 253.158 439.227Z" fill="#615E83"/>
<path d="M118.276 445.014V444.119L121.636 440.44C122.031 440.009 122.356 439.635 122.611 439.317C122.866 438.995 123.055 438.694 123.178 438.412C123.304 438.127 123.367 437.829 123.367 437.517C123.367 437.159 123.28 436.849 123.108 436.587C122.939 436.325 122.707 436.123 122.412 435.981C122.117 435.838 121.786 435.767 121.418 435.767C121.027 435.767 120.685 435.848 120.394 436.011C120.105 436.17 119.881 436.393 119.722 436.682C119.567 436.97 119.489 437.308 119.489 437.696H118.315C118.315 437.099 118.453 436.576 118.728 436.125C119.003 435.674 119.378 435.323 119.852 435.071C120.329 434.819 120.864 434.693 121.457 434.693C122.054 434.693 122.583 434.819 123.043 435.071C123.504 435.323 123.865 435.663 124.127 436.09C124.389 436.518 124.52 436.993 124.52 437.517C124.52 437.892 124.452 438.258 124.316 438.616C124.184 438.97 123.952 439.366 123.62 439.804C123.292 440.238 122.836 440.768 122.253 441.395L119.966 443.841V443.92H124.699V445.014H118.276ZM130.073 445.153C129.324 445.153 128.686 444.95 128.159 444.542C127.632 444.131 127.229 443.536 126.951 442.757C126.673 441.975 126.533 441.03 126.533 439.923C126.533 438.823 126.673 437.883 126.951 437.104C127.233 436.322 127.637 435.726 128.164 435.315C128.694 434.9 129.331 434.693 130.073 434.693C130.816 434.693 131.45 434.9 131.977 435.315C132.508 435.726 132.912 436.322 133.19 437.104C133.472 437.883 133.613 438.823 133.613 439.923C133.613 441.03 133.474 441.975 133.195 442.757C132.917 443.536 132.514 444.131 131.987 444.542C131.46 444.95 130.822 445.153 130.073 445.153ZM130.073 444.06C130.816 444.06 131.392 443.702 131.803 442.986C132.214 442.27 132.42 441.249 132.42 439.923C132.42 439.042 132.325 438.291 132.136 437.671C131.951 437.051 131.682 436.579 131.331 436.254C130.983 435.929 130.564 435.767 130.073 435.767C129.337 435.767 128.762 436.13 128.348 436.856C127.934 437.578 127.727 438.601 127.727 439.923C127.727 440.805 127.819 441.554 128.005 442.17C128.191 442.787 128.457 443.256 128.805 443.577C129.157 443.899 129.579 444.06 130.073 444.06ZM139.082 434.832V445.014H137.849V436.125H137.789L135.303 437.776V436.523L137.849 434.832H139.082ZM142.328 445.014L146.882 436.006V435.926H141.632V434.832H148.155V435.986L143.621 445.014H142.328Z" fill="#615E83"/>
<path d="M334.309 445.014V444.119L337.669 440.44C338.064 440.009 338.389 439.635 338.644 439.317C338.899 438.995 339.088 438.694 339.211 438.412C339.337 438.127 339.4 437.829 339.4 437.517C339.4 437.159 339.313 436.849 339.141 436.587C338.972 436.325 338.74 436.123 338.445 435.981C338.15 435.838 337.819 435.767 337.451 435.767C337.06 435.767 336.718 435.848 336.427 436.011C336.138 436.17 335.914 436.393 335.755 436.682C335.6 436.97 335.522 437.308 335.522 437.696H334.348C334.348 437.099 334.486 436.576 334.761 436.125C335.036 435.674 335.411 435.323 335.885 435.071C336.362 434.819 336.897 434.693 337.49 434.693C338.087 434.693 338.616 434.819 339.076 435.071C339.537 435.323 339.898 435.663 340.16 436.09C340.422 436.518 340.553 436.993 340.553 437.517C340.553 437.892 340.485 438.258 340.349 438.616C340.217 438.97 339.985 439.366 339.653 439.804C339.325 440.238 338.869 440.768 338.286 441.395L335.999 443.841V443.92H340.732V445.014H334.309ZM346.106 445.153C345.357 445.153 344.719 444.95 344.192 444.542C343.665 444.131 343.262 443.536 342.984 442.757C342.706 441.975 342.566 441.03 342.566 439.923C342.566 438.823 342.706 437.883 342.984 437.104C343.266 436.322 343.67 435.726 344.197 435.315C344.727 434.9 345.364 434.693 346.106 434.693C346.849 434.693 347.483 434.9 348.01 435.315C348.541 435.726 348.945 436.322 349.223 437.104C349.505 437.883 349.646 438.823 349.646 439.923C349.646 441.03 349.507 441.975 349.228 442.757C348.95 443.536 348.547 444.131 348.02 444.542C347.493 444.95 346.855 445.153 346.106 445.153ZM346.106 444.06C346.849 444.06 347.425 443.702 347.836 442.986C348.247 442.27 348.453 441.249 348.453 439.923C348.453 439.042 348.358 438.291 348.169 437.671C347.984 437.051 347.715 436.579 347.364 436.254C347.016 435.929 346.597 435.767 346.106 435.767C345.37 435.767 344.795 436.13 344.381 436.856C343.967 437.578 343.76 438.601 343.76 439.923C343.76 440.805 343.852 441.554 344.038 442.17C344.224 442.787 344.49 443.256 344.838 443.577C345.19 443.899 345.612 444.06 346.106 444.06ZM355.115 434.832V445.014H353.882V436.125H353.822L351.336 437.776V436.523L353.882 434.832H355.115ZM361.285 434.693C361.702 434.696 362.12 434.776 362.537 434.932C362.955 435.088 363.336 435.346 363.681 435.707C364.026 436.065 364.302 436.554 364.511 437.174C364.72 437.794 364.824 438.571 364.824 439.506C364.824 440.41 364.738 441.214 364.566 441.917C364.397 442.616 364.151 443.206 363.83 443.687C363.512 444.167 363.124 444.532 362.667 444.78C362.213 445.029 361.699 445.153 361.125 445.153C360.555 445.153 360.047 445.041 359.599 444.815C359.155 444.587 358.79 444.27 358.505 443.866C358.224 443.458 358.043 442.986 357.963 442.449H359.177C359.286 442.916 359.503 443.302 359.828 443.607C360.156 443.909 360.588 444.06 361.125 444.06C361.911 444.06 362.531 443.717 362.985 443.03C363.442 442.344 363.671 441.375 363.671 440.122H363.591C363.406 440.401 363.185 440.641 362.93 440.843C362.675 441.045 362.392 441.201 362.08 441.31C361.768 441.42 361.437 441.474 361.086 441.474C360.502 441.474 359.967 441.33 359.48 441.042C358.996 440.75 358.608 440.351 358.316 439.844C358.028 439.333 357.884 438.75 357.884 438.094C357.884 437.471 358.023 436.901 358.302 436.383C358.583 435.863 358.978 435.449 359.485 435.141C359.995 434.832 360.595 434.683 361.285 434.693ZM361.285 435.787C360.867 435.787 360.491 435.891 360.156 436.1C359.825 436.306 359.561 436.584 359.365 436.935C359.173 437.283 359.077 437.669 359.077 438.094C359.077 438.518 359.17 438.904 359.356 439.252C359.544 439.597 359.801 439.872 360.126 440.077C360.454 440.28 360.827 440.381 361.245 440.381C361.56 440.381 361.853 440.319 362.125 440.197C362.396 440.071 362.633 439.9 362.836 439.685C363.041 439.466 363.202 439.219 363.318 438.944C363.434 438.665 363.492 438.375 363.492 438.074C363.492 437.676 363.396 437.303 363.204 436.955C363.015 436.607 362.753 436.325 362.418 436.11C362.087 435.895 361.709 435.787 361.285 435.787Z" fill="#615E83"/>
<path d="M441.521 445.014V444.119L444.882 440.44C445.276 440.009 445.601 439.635 445.856 439.317C446.112 438.995 446.3 438.694 446.423 438.412C446.549 438.127 446.612 437.829 446.612 437.517C446.612 437.159 446.526 436.849 446.354 436.587C446.184 436.325 445.952 436.123 445.657 435.981C445.363 435.838 445.031 435.767 444.663 435.767C444.272 435.767 443.931 435.848 443.639 436.011C443.351 436.17 443.127 436.393 442.968 436.682C442.812 436.97 442.734 437.308 442.734 437.696H441.561C441.561 437.099 441.698 436.576 441.974 436.125C442.249 435.674 442.623 435.323 443.097 435.071C443.574 434.819 444.11 434.693 444.703 434.693C445.3 434.693 445.828 434.819 446.289 435.071C446.75 435.323 447.111 435.663 447.373 436.09C447.635 436.518 447.765 436.993 447.765 437.517C447.765 437.892 447.698 438.258 447.562 438.616C447.429 438.97 447.197 439.366 446.866 439.804C446.537 440.238 446.082 440.768 445.498 441.395L443.211 443.841V443.92H447.944V445.014H441.521ZM453.319 445.153C452.57 445.153 451.932 444.95 451.405 444.542C450.878 444.131 450.475 443.536 450.197 442.757C449.918 441.975 449.779 441.03 449.779 439.923C449.779 438.823 449.918 437.883 450.197 437.104C450.478 436.322 450.883 435.726 451.41 435.315C451.94 434.9 452.576 434.693 453.319 434.693C454.061 434.693 454.696 434.9 455.223 435.315C455.753 435.726 456.157 436.322 456.436 437.104C456.718 437.883 456.858 438.823 456.858 439.923C456.858 441.03 456.719 441.975 456.441 442.757C456.162 443.536 455.76 444.131 455.233 444.542C454.706 444.95 454.068 445.153 453.319 445.153ZM453.319 444.06C454.061 444.06 454.638 443.702 455.049 442.986C455.46 442.27 455.665 441.249 455.665 439.923C455.665 439.042 455.571 438.291 455.382 437.671C455.196 437.051 454.928 436.579 454.577 436.254C454.229 435.929 453.809 435.767 453.319 435.767C452.583 435.767 452.008 436.13 451.594 436.856C451.179 437.578 450.972 438.601 450.972 439.923C450.972 440.805 451.065 441.554 451.251 442.17C451.436 442.787 451.703 443.256 452.051 443.577C452.402 443.899 452.825 444.06 453.319 444.06ZM458.748 445.014V444.119L462.108 440.44C462.503 440.009 462.828 439.635 463.083 439.317C463.338 438.995 463.527 438.694 463.65 438.412C463.776 438.127 463.839 437.829 463.839 437.517C463.839 437.159 463.752 436.849 463.58 436.587C463.411 436.325 463.179 436.123 462.884 435.981C462.589 435.838 462.258 435.767 461.89 435.767C461.499 435.767 461.157 435.848 460.866 436.011C460.577 436.17 460.354 436.393 460.194 436.682C460.039 436.97 459.961 437.308 459.961 437.696H458.787C458.787 437.099 458.925 436.576 459.2 436.125C459.475 435.674 459.85 435.323 460.324 435.071C460.801 434.819 461.336 434.693 461.93 434.693C462.526 434.693 463.055 434.819 463.515 435.071C463.976 435.323 464.337 435.663 464.599 436.09C464.861 436.518 464.992 436.993 464.992 437.517C464.992 437.892 464.924 438.258 464.788 438.616C464.656 438.97 464.424 439.366 464.092 439.804C463.764 440.238 463.308 440.768 462.725 441.395L460.438 443.841V443.92H465.171V445.014H458.748ZM470.545 445.153C469.796 445.153 469.158 444.95 468.631 444.542C468.104 444.131 467.702 443.536 467.423 442.757C467.145 441.975 467.006 441.03 467.006 439.923C467.006 438.823 467.145 437.883 467.423 437.104C467.705 436.322 468.109 435.726 468.636 435.315C469.166 434.9 469.803 434.693 470.545 434.693C471.288 434.693 471.922 434.9 472.449 435.315C472.98 435.726 473.384 436.322 473.662 437.104C473.944 437.883 474.085 438.823 474.085 439.923C474.085 441.03 473.946 441.975 473.667 442.757C473.389 443.536 472.986 444.131 472.459 444.542C471.932 444.95 471.294 445.153 470.545 445.153ZM470.545 444.06C471.288 444.06 471.864 443.702 472.275 442.986C472.686 442.27 472.892 441.249 472.892 439.923C472.892 439.042 472.797 438.291 472.608 437.671C472.423 437.051 472.154 436.579 471.803 436.254C471.455 435.929 471.036 435.767 470.545 435.767C469.809 435.767 469.234 436.13 468.82 436.856C468.406 437.578 468.199 438.601 468.199 439.923C468.199 440.805 468.291 441.554 468.477 442.17C468.663 442.787 468.93 443.256 469.278 443.577C469.629 443.899 470.051 444.06 470.545 444.06Z" fill="#615E83"/>
<path d="M550.843 445.014V444.119L554.203 440.44C554.598 440.009 554.923 439.635 555.178 439.317C555.433 438.995 555.622 438.694 555.745 438.412C555.87 438.127 555.933 437.829 555.933 437.517C555.933 437.159 555.847 436.849 555.675 436.587C555.506 436.325 555.274 436.123 554.979 435.981C554.684 435.838 554.352 435.767 553.985 435.767C553.593 435.767 553.252 435.848 552.96 436.011C552.672 436.17 552.448 436.393 552.289 436.682C552.133 436.97 552.056 437.308 552.056 437.696H550.882C550.882 437.099 551.02 436.576 551.295 436.125C551.57 435.674 551.945 435.323 552.419 435.071C552.896 434.819 553.431 434.693 554.024 434.693C554.621 434.693 555.15 434.819 555.61 435.071C556.071 435.323 556.432 435.663 556.694 436.09C556.956 436.518 557.087 436.993 557.087 437.517C557.087 437.892 557.019 438.258 556.883 438.616C556.75 438.97 556.518 439.366 556.187 439.804C555.859 440.238 555.403 440.768 554.82 441.395L552.533 443.841V443.92H557.266V445.014H550.843ZM562.64 445.153C561.891 445.153 561.253 444.95 560.726 444.542C560.199 444.131 559.796 443.536 559.518 442.757C559.24 441.975 559.1 441.03 559.1 439.923C559.1 438.823 559.24 437.883 559.518 437.104C559.8 436.322 560.204 435.726 560.731 435.315C561.261 434.9 561.898 434.693 562.64 434.693C563.383 434.693 564.017 434.9 564.544 435.315C565.075 435.726 565.479 436.322 565.757 437.104C566.039 437.883 566.18 438.823 566.18 439.923C566.18 441.03 566.041 441.975 565.762 442.757C565.484 443.536 565.081 444.131 564.554 444.542C564.027 444.95 563.389 445.153 562.64 445.153ZM562.64 444.06C563.383 444.06 563.959 443.702 564.37 442.986C564.781 442.27 564.987 441.249 564.987 439.923C564.987 439.042 564.892 438.291 564.703 437.671C564.518 437.051 564.249 436.579 563.898 436.254C563.55 435.929 563.131 435.767 562.64 435.767C561.904 435.767 561.329 436.13 560.915 436.856C560.501 437.578 560.294 438.601 560.294 439.923C560.294 440.805 560.386 441.554 560.572 442.17C560.758 442.787 561.024 443.256 561.372 443.577C561.724 443.899 562.146 444.06 562.64 444.06ZM568.069 445.014V444.119L571.43 440.44C571.824 440.009 572.149 439.635 572.404 439.317C572.66 438.995 572.848 438.694 572.971 438.412C573.097 438.127 573.16 437.829 573.16 437.517C573.16 437.159 573.074 436.849 572.901 436.587C572.732 436.325 572.5 436.123 572.205 435.981C571.91 435.838 571.579 435.767 571.211 435.767C570.82 435.767 570.479 435.848 570.187 436.011C569.899 436.17 569.675 436.393 569.516 436.682C569.36 436.97 569.282 437.308 569.282 437.696H568.109C568.109 437.099 568.246 436.576 568.521 436.125C568.797 435.674 569.171 435.323 569.645 435.071C570.122 434.819 570.658 434.693 571.251 434.693C571.847 434.693 572.376 434.819 572.837 435.071C573.298 435.323 573.659 435.663 573.921 436.09C574.182 436.518 574.313 436.993 574.313 437.517C574.313 437.892 574.245 438.258 574.11 438.616C573.977 438.97 573.745 439.366 573.414 439.804C573.085 440.238 572.63 440.768 572.046 441.395L569.759 443.841V443.92H574.492V445.014H568.069ZM580.125 434.832V445.014H578.892V436.125H578.833L576.347 437.776V436.523L578.892 434.832H580.125Z" fill="#615E83"/>
<path d="M658.52 445.014V444.119L661.881 440.44C662.276 440.009 662.601 439.635 662.856 439.317C663.111 438.995 663.3 438.694 663.422 438.412C663.548 438.127 663.611 437.829 663.611 437.517C663.611 437.159 663.525 436.849 663.353 436.587C663.184 436.325 662.952 436.123 662.657 435.981C662.362 435.838 662.03 435.767 661.663 435.767C661.271 435.767 660.93 435.848 660.638 436.011C660.35 436.17 660.126 436.393 659.967 436.682C659.811 436.97 659.734 437.308 659.734 437.696H658.56C658.56 437.099 658.698 436.576 658.973 436.125C659.248 435.674 659.623 435.323 660.096 435.071C660.574 434.819 661.109 434.693 661.702 434.693C662.299 434.693 662.828 434.819 663.288 435.071C663.749 435.323 664.11 435.663 664.372 436.09C664.634 436.518 664.765 436.993 664.765 437.517C664.765 437.892 664.697 438.258 664.561 438.616C664.428 438.97 664.196 439.366 663.865 439.804C663.537 440.238 663.081 440.768 662.498 441.395L660.211 443.841V443.92H664.944V445.014H658.52ZM670.318 445.153C669.569 445.153 668.931 444.95 668.404 444.542C667.877 444.131 667.474 443.536 667.196 442.757C666.918 441.975 666.778 441.03 666.778 439.923C666.778 438.823 666.918 437.883 667.196 437.104C667.478 436.322 667.882 435.726 668.409 435.315C668.939 434.9 669.576 434.693 670.318 434.693C671.061 434.693 671.695 434.9 672.222 435.315C672.753 435.726 673.157 436.322 673.435 437.104C673.717 437.883 673.858 438.823 673.858 439.923C673.858 441.03 673.719 441.975 673.44 442.757C673.162 443.536 672.759 444.131 672.232 444.542C671.705 444.95 671.067 445.153 670.318 445.153ZM670.318 444.06C671.061 444.06 671.637 443.702 672.048 442.986C672.459 442.27 672.665 441.249 672.665 439.923C672.665 439.042 672.57 438.291 672.381 437.671C672.196 437.051 671.927 436.579 671.576 436.254C671.228 435.929 670.809 435.767 670.318 435.767C669.582 435.767 669.007 436.13 668.593 436.856C668.179 437.578 667.971 438.601 667.971 439.923C667.971 440.805 668.064 441.554 668.25 442.17C668.436 442.787 668.702 443.256 669.05 443.577C669.402 443.899 669.824 444.06 670.318 444.06ZM675.747 445.014V444.119L679.108 440.44C679.502 440.009 679.827 439.635 680.082 439.317C680.337 438.995 680.526 438.694 680.649 438.412C680.775 438.127 680.838 437.829 680.838 437.517C680.838 437.159 680.752 436.849 680.579 436.587C680.41 436.325 680.178 436.123 679.883 435.981C679.588 435.838 679.257 435.767 678.889 435.767C678.498 435.767 678.157 435.848 677.865 436.011C677.577 436.17 677.353 436.393 677.194 436.682C677.038 436.97 676.96 437.308 676.96 437.696H675.787C675.787 437.099 675.924 436.576 676.199 436.125C676.475 435.674 676.849 435.323 677.323 435.071C677.8 434.819 678.336 434.693 678.929 434.693C679.525 434.693 680.054 434.819 680.515 435.071C680.976 435.323 681.337 435.663 681.599 436.09C681.86 436.518 681.991 436.993 681.991 437.517C681.991 437.892 681.923 438.258 681.788 438.616C681.655 438.97 681.423 439.366 681.092 439.804C680.763 440.238 680.308 440.768 679.724 441.395L677.437 443.841V443.92H682.17V445.014H675.747ZM684.224 445.014V444.119L687.584 440.44C687.979 440.009 688.304 439.635 688.559 439.317C688.814 438.995 689.003 438.694 689.126 438.412C689.252 438.127 689.315 437.829 689.315 437.517C689.315 437.159 689.228 436.849 689.056 436.587C688.887 436.325 688.655 436.123 688.36 435.981C688.065 435.838 687.734 435.767 687.366 435.767C686.975 435.767 686.633 435.848 686.342 436.011C686.053 436.17 685.829 436.393 685.67 436.682C685.515 436.97 685.437 437.308 685.437 437.696H684.263C684.263 437.099 684.401 436.576 684.676 436.125C684.951 435.674 685.326 435.323 685.8 435.071C686.277 434.819 686.812 434.693 687.405 434.693C688.002 434.693 688.531 434.819 688.991 435.071C689.452 435.323 689.813 435.663 690.075 436.09C690.337 436.518 690.468 436.993 690.468 437.517C690.468 437.892 690.4 438.258 690.264 438.616C690.132 438.97 689.9 439.366 689.568 439.804C689.24 440.238 688.784 440.768 688.201 441.395L685.914 443.841V443.92H690.647V445.014H684.224Z" fill="#615E83"/>
<path d="M79.803 400.771C79.0539 400.771 78.4159 400.567 77.8889 400.16C77.3619 399.749 76.9592 399.154 76.6808 398.375C76.4024 397.593 76.2632 396.648 76.2632 395.541C76.2632 394.441 76.4024 393.501 76.6808 392.722C76.9626 391.94 77.3669 391.343 77.8939 390.932C78.4242 390.518 79.0606 390.311 79.803 390.311C80.5454 390.311 81.1801 390.518 81.7071 390.932C82.2374 391.343 82.6418 391.94 82.9202 392.722C83.2019 393.501 83.3428 394.441 83.3428 395.541C83.3428 396.648 83.2036 397.593 82.9252 398.375C82.6467 399.154 82.244 399.749 81.7171 400.16C81.1901 400.567 80.552 400.771 79.803 400.771ZM79.803 399.677C80.5454 399.677 81.1221 399.319 81.5331 398.603C81.9441 397.888 82.1496 396.867 82.1496 395.541C82.1496 394.659 82.0551 393.909 81.8662 393.289C81.6806 392.669 81.4121 392.197 81.0608 391.872C80.7128 391.547 80.2935 391.385 79.803 391.385C79.0672 391.385 78.4922 391.748 78.0779 392.473C77.6636 393.196 77.4564 394.218 77.4564 395.541C77.4564 396.423 77.5492 397.172 77.7348 397.788C77.9204 398.405 78.1872 398.874 78.5352 399.195C78.8866 399.517 79.3092 399.677 79.803 399.677Z" fill="#615E83"/>
<path d="M69.8487 320.039V330.221H68.6158V321.331H68.5561L66.0703 322.982V321.729L68.6158 320.039H69.8487ZM72.956 320.039H74.4276L77.8878 328.491H78.0071L81.4673 320.039H82.9389V330.221H81.7855V322.485H81.6861L78.5043 330.221H77.3906L74.2088 322.485H74.1094V330.221H72.956V320.039Z" fill="#615E83"/>
<path d="M64.3004 252.624V251.729L67.6612 248.05C68.0556 247.619 68.3804 247.245 68.6356 246.926C68.8908 246.605 69.0797 246.303 69.2023 246.022C69.3283 245.736 69.3913 245.438 69.3913 245.127C69.3913 244.769 69.3051 244.459 69.1327 244.197C68.9637 243.935 68.7317 243.733 68.4367 243.59C68.1417 243.448 67.8103 243.377 67.4424 243.377C67.0513 243.377 66.7099 243.458 66.4183 243.62C66.1299 243.779 65.9062 244.003 65.7471 244.291C65.5913 244.58 65.5134 244.918 65.5134 245.306H64.3401C64.3401 244.709 64.4777 244.185 64.7528 243.735C65.0279 243.284 65.4024 242.932 65.8763 242.681C66.3536 242.429 66.8889 242.303 67.4822 242.303C68.0788 242.303 68.6074 242.429 69.0681 242.681C69.5288 242.932 69.8901 243.272 70.1519 243.7C70.4138 244.127 70.5447 244.603 70.5447 245.127C70.5447 245.501 70.4767 245.867 70.3408 246.225C70.2083 246.58 69.9763 246.976 69.6448 247.414C69.3167 247.848 68.861 248.378 68.2776 249.004L65.9907 251.45V251.53H70.7237V252.624H64.3004ZM72.9559 242.442H74.4275L77.8877 250.894H78.007L81.4673 242.442H82.9388V252.624H81.7854V244.888H81.686L78.5042 252.624H77.3906L74.2087 244.888H74.1093V252.624H72.9559V242.442Z" fill="#615E83"/>
<path d="M67.3033 177.297C66.647 177.297 66.062 177.185 65.5483 176.959C65.0379 176.734 64.6319 176.421 64.3303 176.02C64.032 175.615 63.8696 175.146 63.8431 174.613H65.0959C65.1224 174.941 65.2351 175.224 65.434 175.463C65.6328 175.698 65.893 175.881 66.2145 176.01C66.536 176.139 66.8923 176.204 67.2834 176.204C67.7209 176.204 68.1087 176.127 68.4467 175.975C68.7848 175.823 69.05 175.61 69.2422 175.339C69.4344 175.067 69.5306 174.752 69.5306 174.394C69.5306 174.019 69.4377 173.69 69.2521 173.405C69.0665 173.116 68.7948 172.891 68.4368 172.729C68.0788 172.566 67.6413 172.485 67.1243 172.485H66.309V171.391H67.1243C67.5287 171.391 67.8833 171.318 68.1882 171.172C68.4965 171.027 68.7368 170.821 68.9091 170.556C69.0848 170.291 69.1726 169.979 69.1726 169.621C69.1726 169.277 69.0964 168.977 68.9439 168.721C68.7914 168.466 68.576 168.267 68.2976 168.125C68.0225 167.982 67.6977 167.911 67.3232 167.911C66.9718 167.911 66.6404 167.976 66.3288 168.105C66.0206 168.231 65.7687 168.415 65.5732 168.657C65.3776 168.895 65.2716 169.184 65.255 169.522H64.0618C64.0817 168.988 64.2424 168.521 64.544 168.12C64.8457 167.715 65.2401 167.401 65.7273 167.175C66.2178 166.95 66.7564 166.837 67.3431 166.837C67.9728 166.837 68.513 166.965 68.9638 167.22C69.4145 167.472 69.7609 167.805 70.0029 168.219C70.2448 168.634 70.3658 169.081 70.3658 169.562C70.3658 170.135 70.215 170.624 69.9134 171.028C69.6151 171.433 69.2091 171.713 68.6953 171.868V171.948C69.3383 172.054 69.8404 172.327 70.2017 172.768C70.563 173.206 70.7436 173.748 70.7436 174.394C70.7436 174.948 70.5928 175.445 70.2912 175.885C69.9929 176.323 69.5852 176.668 69.0682 176.92C68.5511 177.171 67.9628 177.297 67.3033 177.297ZM72.956 166.976H74.4276L77.8878 175.428H78.0071L81.4673 166.976H82.9389V177.158H81.7855V169.422H81.6861L78.5043 177.158H77.3906L74.2088 169.422H74.1094V177.158H72.956V166.976Z" fill="#615E83"/>
<line x1="109.253" y1="407.923" x2="698.395" y2="407.923" stroke="#E5E5EF" stroke-width="1.5" stroke-linecap="round"/>
<line x1="109.253" y1="328.138" x2="698.395" y2="328.138" stroke="#E5E5EF" stroke-width="1.5" stroke-linecap="round" stroke-dasharray="4 7"/>
<line x1="109.253" y1="250.541" x2="698.395" y2="250.541" stroke="#E5E5EF" stroke-width="1.5" stroke-linecap="round" stroke-dasharray="4 7"/>
<line x1="109.253" y1="172.944" x2="698.395" y2="172.944" stroke="#E5E5EF" stroke-width="1.5" stroke-linecap="round" stroke-dasharray="4 7"/>
<path d="M108.503 219.896C108.503 214.373 112.98 209.896 118.503 209.896H147.677C153.2 209.896 157.677 214.373 157.677 219.896V259.07H108.503V219.896Z" fill="#0242FF" fill-opacity="0.7"/>
<rect x="108.503" y="259.069" width="49.174" height="49.174" fill="#0242FF" fill-opacity="0.4"/>
<rect x="108.503" y="308.241" width="49.174" height="49.174" fill="#0242FF" fill-opacity="0.2"/>
<rect x="108.503" y="357.42" width="49.174" height="49.174" fill="#0242FF" fill-opacity="0.1"/>
<path d="M216.703 269.073C216.703 263.55 221.181 259.073 226.703 259.073H255.877C261.4 259.073 265.877 263.55 265.877 269.073V308.247H216.703V269.073Z" fill="#0242FF" fill-opacity="0.4"/>
<rect x="216.703" y="308.246" width="49.174" height="49.174" fill="#0242FF" fill-opacity="0.2"/>
<rect x="216.703" y="357.424" width="49.174" height="49.174" fill="#0242FF" fill-opacity="0.1"/>
<path d="M324.908 170.723C324.908 165.2 329.385 160.723 334.908 160.723H364.082C369.605 160.723 374.082 165.2 374.082 170.723V209.897H324.908V170.723Z" fill="#0242FF"/>
<rect x="324.908" y="209.896" width="49.174" height="49.174" fill="#0242FF" fill-opacity="0.7"/>
<rect x="324.908" y="259.074" width="49.174" height="49.174" fill="#0242FF" fill-opacity="0.4"/>
<rect x="324.908" y="308.246" width="49.174" height="49.174" fill="#0242FF" fill-opacity="0.2"/>
<rect x="324.908" y="357.419" width="49.174" height="49.174" fill="#0242FF" fill-opacity="0.1"/>
<path d="M433.108 269.073C433.108 263.55 437.585 259.073 443.108 259.073H472.282C477.805 259.073 482.282 263.55 482.282 269.073V308.247H433.108V269.073Z" fill="#0242FF" fill-opacity="0.4"/>
<rect x="433.108" y="308.246" width="49.174" height="49.174" fill="#0242FF" fill-opacity="0.2"/>
<rect x="433.108" y="357.424" width="49.174" height="49.174" fill="#0242FF" fill-opacity="0.1"/>
<path d="M541.309 269.073C541.309 263.55 545.786 259.073 551.309 259.073H580.483C586.005 259.073 590.483 263.55 590.483 269.073V308.247H541.309V269.073Z" fill="#0242FF" fill-opacity="0.4"/>
<rect x="541.309" y="308.246" width="49.174" height="49.174" fill="#0242FF" fill-opacity="0.2"/>
<rect x="541.309" y="357.424" width="49.174" height="49.174" fill="#0242FF" fill-opacity="0.1"/>
<path d="M649.509 269.073C649.509 263.55 653.986 259.073 659.509 259.073H688.683C694.206 259.073 698.683 263.55 698.683 269.073V308.247H649.509V269.073Z" fill="#0242FF" fill-opacity="0.4"/>
<rect x="649.509" y="308.246" width="49.174" height="49.174" fill="#0242FF" fill-opacity="0.2"/>
<rect x="649.509" y="357.424" width="49.174" height="49.174" fill="#0242FF" fill-opacity="0.1"/>
<path opacity="0.7" d="M280.086 233.792C209.95 309.973 152.865 268.875 133.089 234.11V406.436H674.576V283.895C667.893 287.352 652.525 317.248 621.317 290.852C570.302 241.727 527.223 279.137 514.375 290.852C501.527 302.566 458.826 332.797 426.328 264.778C393.83 196.758 371.534 186.556 359.82 185.8C348.106 185.044 327.322 179.754 280.086 233.792Z" fill="url(#paint0_linear_269_13323)"/>
<path d="M133.089 234.11C152.865 268.875 209.95 309.973 280.086 233.792C327.322 179.754 348.106 185.044 359.82 185.8C371.534 186.556 393.83 196.758 426.328 264.778C458.826 332.797 501.527 302.566 514.375 290.852C527.223 279.137 570.302 241.727 621.317 290.852C652.525 317.248 667.893 287.352 674.576 283.895" stroke="#0242FF" stroke-width="2" stroke-linecap="round"/>
<circle cx="133.089" cy="234.486" r="4.64706" fill="#0242FF" stroke="white" stroke-width="2"/>
<circle cx="242.27" cy="264.859" r="4.64706" fill="#0242FF" stroke="white" stroke-width="2"/>
<circle cx="349.491" cy="185.313" r="4.64706" fill="#0242FF" stroke="white" stroke-width="2"/>
<circle cx="457.694" cy="302.863" r="4.64706" fill="#0242FF" stroke="white" stroke-width="2"/>
<circle cx="565.895" cy="266.324" r="4.64706" fill="#0242FF" stroke="white" stroke-width="2"/>
<circle cx="674.096" cy="283.664" r="4.64706" fill="#0242FF" stroke="white" stroke-width="2"/>
<line x1="52.084" y1="107.706" x2="699.145" y2="107.706" stroke="#E5E5EF"/>
<rect x="522.637" y="8.98926" width="176.048" height="58.3691" rx="20" fill="#F8F8FF"/>
<path d="M595.658 43.1682H594.365L598.104 32.9864H599.376L603.115 43.1682H601.822L598.78 34.5972H598.7L595.658 43.1682ZM596.135 39.1909H601.345V40.2847H596.135V39.1909ZM605.715 38.5745V43.1682H604.542V35.5318H605.675V36.725H605.775C605.954 36.3372 606.226 36.0257 606.59 35.7904C606.955 35.5517 607.425 35.4324 608.002 35.4324C608.519 35.4324 608.972 35.5385 609.359 35.7506C609.747 35.9594 610.049 36.2776 610.264 36.7051C610.48 37.1294 610.587 37.6663 610.587 38.3159V43.1682H609.414V38.3955C609.414 37.7956 609.258 37.3283 608.947 36.9935C608.635 36.6554 608.208 36.4864 607.664 36.4864C607.29 36.4864 606.955 36.5676 606.66 36.73C606.368 36.8924 606.138 37.1294 605.969 37.4409C605.8 37.7525 605.715 38.1303 605.715 38.5745ZM613.905 38.5745V43.1682H612.731V35.5318H613.865V36.725H613.964C614.143 36.3372 614.415 36.0257 614.78 35.7904C615.144 35.5517 615.615 35.4324 616.192 35.4324C616.709 35.4324 617.161 35.5385 617.549 35.7506C617.937 35.9594 618.238 36.2776 618.454 36.7051C618.669 37.1294 618.777 37.6663 618.777 38.3159V43.1682H617.603V38.3955C617.603 37.7956 617.448 37.3283 617.136 36.9935C616.825 36.6554 616.397 36.4864 615.853 36.4864C615.479 36.4864 615.144 36.5676 614.849 36.73C614.558 36.8924 614.327 37.1294 614.158 37.4409C613.989 37.7525 613.905 38.1303 613.905 38.5745ZM625.733 40.0461V35.5318H626.907V43.1682H625.733V41.8756H625.654C625.475 42.2634 625.196 42.5932 624.819 42.8649C624.441 43.1334 623.963 43.2676 623.387 43.2676C622.909 43.2676 622.485 43.1632 622.114 42.9544C621.743 42.7423 621.451 42.4241 621.239 41.9999C621.027 41.5723 620.921 41.0337 620.921 40.3841V35.5318H622.094V40.3046C622.094 40.8614 622.25 41.3055 622.561 41.637C622.876 41.9684 623.277 42.1341 623.765 42.1341C624.056 42.1341 624.353 42.0595 624.654 41.9104C624.959 41.7613 625.215 41.5326 625.42 41.2243C625.629 40.9161 625.733 40.5233 625.733 40.0461ZM631.303 43.3472C630.819 43.3472 630.38 43.256 629.985 43.0738C629.591 42.8881 629.278 42.6213 629.046 42.2733C628.814 41.922 628.698 41.4978 628.698 41.0006C628.698 40.5631 628.784 40.2085 628.956 39.9367C629.128 39.6616 629.359 39.4461 629.647 39.2904C629.936 39.1346 630.254 39.0186 630.602 38.9424C630.953 38.8628 631.306 38.7998 631.661 38.7534C632.125 38.6938 632.501 38.649 632.789 38.6192C633.081 38.5861 633.293 38.5314 633.426 38.4551C633.561 38.3789 633.629 38.2463 633.629 38.0574V38.0176C633.629 37.5271 633.495 37.146 633.227 36.8742C632.962 36.6024 632.559 36.4665 632.019 36.4665C631.458 36.4665 631.019 36.5891 630.701 36.8344C630.383 37.0797 630.159 37.3415 630.03 37.6199L628.916 37.2222C629.115 36.7582 629.38 36.3969 629.712 36.1384C630.047 35.8765 630.411 35.6943 630.806 35.5915C631.203 35.4854 631.594 35.4324 631.979 35.4324C632.224 35.4324 632.506 35.4622 632.824 35.5219C633.146 35.5783 633.455 35.6959 633.754 35.8749C634.055 36.0539 634.306 36.324 634.504 36.6853C634.703 37.0465 634.803 37.5304 634.803 38.137V43.1682H633.629V42.1341H633.57C633.49 42.2998 633.358 42.4772 633.172 42.6661C632.986 42.855 632.74 43.0158 632.431 43.1483C632.123 43.2809 631.747 43.3472 631.303 43.3472ZM631.482 42.2932C631.946 42.2932 632.337 42.2021 632.655 42.0198C632.976 41.8375 633.218 41.6022 633.381 41.3138C633.547 41.0255 633.629 40.7222 633.629 40.404V39.3301C633.58 39.3898 633.47 39.4445 633.301 39.4942C633.136 39.5406 632.943 39.582 632.725 39.6185C632.509 39.6516 632.299 39.6815 632.093 39.708C631.891 39.7312 631.727 39.7511 631.601 39.7676C631.296 39.8074 631.011 39.872 630.746 39.9615C630.484 40.0477 630.272 40.1786 630.11 40.3543C629.95 40.5266 629.871 40.762 629.871 41.0603C629.871 41.4679 630.022 41.7762 630.323 41.985C630.628 42.1905 631.014 42.2932 631.482 42.2932ZM638.118 32.9864V43.1682H636.944V32.9864H638.118Z" fill="#615E83"/>
<path fill-rule="evenodd" clip-rule="evenodd" d="M673.188 35.6264C672.947 35.8678 672.947 36.2592 673.188 36.5006L677.396 40.7086C677.4 40.7129 677.404 40.7172 677.409 40.7215C677.529 40.8423 677.688 40.9026 677.846 40.9026C678.004 40.9026 678.163 40.8423 678.283 40.7215C678.288 40.7172 678.292 40.7129 678.296 40.7086L682.504 36.5006C682.745 36.2592 682.745 35.8678 682.504 35.6264C682.262 35.385 681.871 35.385 681.63 35.6264L677.846 39.41L674.062 35.6264C673.821 35.385 673.43 35.385 673.188 35.6264Z" fill="#615E83"/>
<path d="M63.3574 41.2666H66.7402V51.6572C66.7402 52.8239 66.4616 53.8447 65.9043 54.7197C65.3522 55.5947 64.5788 56.277 63.584 56.7666C62.5892 57.251 61.4303 57.4932 60.1074 57.4932C58.7793 57.4932 57.6178 57.251 56.623 56.7666C55.6283 56.277 54.8548 55.5947 54.3027 54.7197C53.7507 53.8447 53.4746 52.8239 53.4746 51.6572V41.2666H56.8574V51.3682C56.8574 51.9775 56.9902 52.5192 57.2559 52.9932C57.5267 53.4671 57.9069 53.8395 58.3965 54.1104C58.8861 54.3812 59.4564 54.5166 60.1074 54.5166C60.7637 54.5166 61.334 54.3812 61.8184 54.1104C62.3079 53.8395 62.6855 53.4671 62.9512 52.9932C63.222 52.5192 63.3574 51.9775 63.3574 51.3682V41.2666ZM79.4453 48.6885L76.3984 48.876C76.3464 48.6156 76.2344 48.3812 76.0625 48.1729C75.8906 47.9593 75.6641 47.79 75.3828 47.665C75.1068 47.5348 74.776 47.4697 74.3906 47.4697C73.875 47.4697 73.4401 47.5791 73.0859 47.7979C72.7318 48.0114 72.5547 48.2979 72.5547 48.6572C72.5547 48.9437 72.6693 49.1859 72.8984 49.3838C73.1276 49.5817 73.5208 49.7406 74.0781 49.8604L76.25 50.2979C77.4167 50.5374 78.2865 50.9229 78.8594 51.4541C79.4323 51.9854 79.7188 52.6833 79.7188 53.5479C79.7188 54.3343 79.487 55.0244 79.0234 55.6182C78.5651 56.2119 77.9349 56.6755 77.1328 57.0088C76.3359 57.3369 75.4167 57.501 74.375 57.501C72.7865 57.501 71.5208 57.1702 70.5781 56.5088C69.6406 55.8421 69.0911 54.9359 68.9297 53.79L72.2031 53.6182C72.3021 54.1025 72.5417 54.4723 72.9219 54.7275C73.3021 54.9775 73.7891 55.1025 74.3828 55.1025C74.9661 55.1025 75.4349 54.9906 75.7891 54.7666C76.1484 54.5374 76.3307 54.2432 76.3359 53.8838C76.3307 53.5817 76.2031 53.3343 75.9531 53.1416C75.7031 52.9437 75.3177 52.7926 74.7969 52.6885L72.7188 52.2744C71.5469 52.04 70.6745 51.6338 70.1016 51.0557C69.5339 50.4775 69.25 49.7406 69.25 48.8447C69.25 48.0739 69.4583 47.4098 69.875 46.8525C70.2969 46.2952 70.888 45.8656 71.6484 45.5635C72.4141 45.2614 73.3099 45.1104 74.3359 45.1104C75.8516 45.1104 77.0443 45.4307 77.9141 46.0713C78.7891 46.7119 79.2995 47.5843 79.4453 48.6885ZM87.2832 57.501C86.0488 57.501 84.9863 57.251 84.0957 56.751C83.2103 56.2458 82.528 55.5322 82.0488 54.6104C81.5697 53.6833 81.3301 52.5869 81.3301 51.3213C81.3301 50.0869 81.5697 49.0036 82.0488 48.0713C82.528 47.139 83.2025 46.4124 84.0723 45.8916C84.9473 45.3708 85.9733 45.1104 87.1504 45.1104C87.9421 45.1104 88.679 45.238 89.3613 45.4932C90.0488 45.7432 90.6478 46.1208 91.1582 46.626C91.6738 47.1312 92.0749 47.7666 92.3613 48.5322C92.6478 49.2926 92.791 50.1833 92.791 51.2041V52.1182H82.6582V50.0557H89.6582C89.6582 49.5765 89.554 49.152 89.3457 48.7822C89.1374 48.4124 88.8483 48.1234 88.4785 47.915C88.1139 47.7015 87.6895 47.5947 87.2051 47.5947C86.6999 47.5947 86.252 47.7119 85.8613 47.9463C85.4759 48.1755 85.1738 48.4854 84.9551 48.876C84.7363 49.2614 84.6243 49.6911 84.6191 50.165V52.126C84.6191 52.7197 84.7285 53.2327 84.9473 53.665C85.1712 54.0973 85.4863 54.4307 85.8926 54.665C86.2988 54.8994 86.7806 55.0166 87.3379 55.0166C87.7077 55.0166 88.0462 54.9645 88.3535 54.8604C88.6608 54.7562 88.9238 54.5999 89.1426 54.3916C89.3613 54.1833 89.528 53.9281 89.6426 53.626L92.7207 53.8291C92.5645 54.5687 92.2441 55.2145 91.7598 55.7666C91.2806 56.3135 90.6608 56.7406 89.9004 57.0479C89.1452 57.3499 88.2728 57.501 87.2832 57.501ZM94.9629 57.2666V45.2666H98.1895V47.3604H98.3145C98.5332 46.6156 98.9004 46.0531 99.416 45.6729C99.9316 45.2874 100.525 45.0947 101.197 45.0947C101.364 45.0947 101.544 45.1051 101.736 45.126C101.929 45.1468 102.098 45.1755 102.244 45.2119V48.165C102.088 48.1182 101.872 48.0765 101.596 48.04C101.32 48.0036 101.067 47.9854 100.838 47.9854C100.348 47.9854 99.9108 48.0921 99.5254 48.3057C99.1452 48.514 98.8431 48.8057 98.6191 49.1807C98.4004 49.5557 98.291 49.988 98.291 50.4775V57.2666H94.9629ZM113.949 48.6885L110.902 48.876C110.85 48.6156 110.738 48.3812 110.566 48.1729C110.395 47.9593 110.168 47.79 109.887 47.665C109.611 47.5348 109.28 47.4697 108.895 47.4697C108.379 47.4697 107.944 47.5791 107.59 47.7979C107.236 48.0114 107.059 48.2979 107.059 48.6572C107.059 48.9437 107.173 49.1859 107.402 49.3838C107.632 49.5817 108.025 49.7406 108.582 49.8604L110.754 50.2979C111.921 50.5374 112.79 50.9229 113.363 51.4541C113.936 51.9854 114.223 52.6833 114.223 53.5479C114.223 54.3343 113.991 55.0244 113.527 55.6182C113.069 56.2119 112.439 56.6755 111.637 57.0088C110.84 57.3369 109.921 57.501 108.879 57.501C107.29 57.501 106.025 57.1702 105.082 56.5088C104.145 55.8421 103.595 54.9359 103.434 53.79L106.707 53.6182C106.806 54.1025 107.046 54.4723 107.426 54.7275C107.806 54.9775 108.293 55.1025 108.887 55.1025C109.47 55.1025 109.939 54.9906 110.293 54.7666C110.652 54.5374 110.835 54.2432 110.84 53.8838C110.835 53.5817 110.707 53.3343 110.457 53.1416C110.207 52.9437 109.822 52.7926 109.301 52.6885L107.223 52.2744C106.051 52.04 105.178 51.6338 104.605 51.0557C104.038 50.4775 103.754 49.7406 103.754 48.8447C103.754 48.0739 103.962 47.4098 104.379 46.8525C104.801 46.2952 105.392 45.8656 106.152 45.5635C106.918 45.2614 107.814 45.1104 108.84 45.1104C110.355 45.1104 111.548 45.4307 112.418 46.0713C113.293 46.7119 113.803 47.5843 113.949 48.6885ZM131.395 48.6885L128.348 48.876C128.296 48.6156 128.184 48.3812 128.012 48.1729C127.84 47.9593 127.613 47.79 127.332 47.665C127.056 47.5348 126.725 47.4697 126.34 47.4697C125.824 47.4697 125.389 47.5791 125.035 47.7979C124.681 48.0114 124.504 48.2979 124.504 48.6572C124.504 48.9437 124.618 49.1859 124.848 49.3838C125.077 49.5817 125.47 49.7406 126.027 49.8604L128.199 50.2979C129.366 50.5374 130.236 50.9229 130.809 51.4541C131.382 51.9854 131.668 52.6833 131.668 53.5479C131.668 54.3343 131.436 55.0244 130.973 55.6182C130.514 56.2119 129.884 56.6755 129.082 57.0088C128.285 57.3369 127.366 57.501 126.324 57.501C124.736 57.501 123.47 57.1702 122.527 56.5088C121.59 55.8421 121.04 54.9359 120.879 53.79L124.152 53.6182C124.251 54.1025 124.491 54.4723 124.871 54.7275C125.251 54.9775 125.738 55.1025 126.332 55.1025C126.915 55.1025 127.384 54.9906 127.738 54.7666C128.098 54.5374 128.28 54.2432 128.285 53.8838C128.28 53.5817 128.152 53.3343 127.902 53.1416C127.652 52.9437 127.267 52.7926 126.746 52.6885L124.668 52.2744C123.496 52.04 122.624 51.6338 122.051 51.0557C121.483 50.4775 121.199 49.7406 121.199 48.8447C121.199 48.0739 121.408 47.4098 121.824 46.8525C122.246 46.2952 122.837 45.8656 123.598 45.5635C124.363 45.2614 125.259 45.1104 126.285 45.1104C127.801 45.1104 128.993 45.4307 129.863 46.0713C130.738 46.7119 131.249 47.5843 131.395 48.6885ZM140.146 45.2666V47.7666H132.92V45.2666H140.146ZM134.561 42.3916H137.889V53.5791C137.889 53.8864 137.936 54.126 138.029 54.2979C138.123 54.4645 138.253 54.5817 138.42 54.6494C138.592 54.7171 138.79 54.751 139.014 54.751C139.17 54.751 139.326 54.738 139.482 54.7119C139.639 54.6807 139.758 54.6572 139.842 54.6416L140.365 57.1182C140.199 57.1702 139.964 57.2301 139.662 57.2979C139.36 57.3708 138.993 57.415 138.561 57.4307C137.758 57.4619 137.055 57.3551 136.451 57.1104C135.852 56.8656 135.386 56.4854 135.053 55.9697C134.719 55.4541 134.555 54.8031 134.561 54.0166V42.3916ZM145.736 57.4932C144.971 57.4932 144.288 57.3604 143.689 57.0947C143.09 56.8239 142.617 56.4255 142.268 55.8994C141.924 55.3682 141.752 54.7067 141.752 53.915C141.752 53.2484 141.874 52.6885 142.119 52.2354C142.364 51.7822 142.697 51.4176 143.119 51.1416C143.541 50.8656 144.02 50.6572 144.557 50.5166C145.098 50.376 145.666 50.277 146.26 50.2197C146.958 50.1468 147.52 50.0791 147.947 50.0166C148.374 49.9489 148.684 49.8499 148.877 49.7197C149.07 49.5895 149.166 49.3968 149.166 49.1416V49.0947C149.166 48.5999 149.01 48.2171 148.697 47.9463C148.39 47.6755 147.952 47.54 147.385 47.54C146.786 47.54 146.309 47.6729 145.955 47.9385C145.601 48.1989 145.367 48.527 145.252 48.9229L142.174 48.6729C142.33 47.9437 142.637 47.3135 143.096 46.7822C143.554 46.2458 144.145 45.8343 144.869 45.5479C145.598 45.2562 146.442 45.1104 147.4 45.1104C148.067 45.1104 148.705 45.1885 149.314 45.3447C149.929 45.501 150.473 45.7432 150.947 46.0713C151.426 46.3994 151.804 46.8213 152.08 47.3369C152.356 47.8473 152.494 48.4593 152.494 49.1729V57.2666H149.338V55.6025H149.244C149.051 55.9775 148.794 56.3083 148.471 56.5947C148.148 56.876 147.76 57.0973 147.307 57.2588C146.854 57.415 146.33 57.4932 145.736 57.4932ZM146.689 55.1963C147.179 55.1963 147.611 55.0999 147.986 54.9072C148.361 54.7093 148.656 54.4437 148.869 54.1104C149.083 53.777 149.189 53.3994 149.189 52.9775V51.7041C149.085 51.7718 148.942 51.8343 148.76 51.8916C148.583 51.9437 148.382 51.9932 148.158 52.04C147.934 52.0817 147.71 52.1208 147.486 52.1572C147.262 52.1885 147.059 52.2171 146.877 52.2432C146.486 52.3005 146.145 52.3916 145.854 52.5166C145.562 52.6416 145.335 52.8109 145.174 53.0244C145.012 53.2327 144.932 53.4932 144.932 53.8057C144.932 54.2588 145.096 54.6051 145.424 54.8447C145.757 55.0791 146.179 55.1963 146.689 55.1963ZM161.459 45.2666V47.7666H154.232V45.2666H161.459ZM155.873 42.3916H159.201V53.5791C159.201 53.8864 159.248 54.126 159.342 54.2979C159.436 54.4645 159.566 54.5817 159.732 54.6494C159.904 54.7171 160.102 54.751 160.326 54.751C160.482 54.751 160.639 54.738 160.795 54.7119C160.951 54.6807 161.071 54.6572 161.154 54.6416L161.678 57.1182C161.511 57.1702 161.277 57.2301 160.975 57.2979C160.673 57.3708 160.305 57.415 159.873 57.4307C159.071 57.4619 158.368 57.3551 157.764 57.1104C157.165 56.8656 156.699 56.4854 156.365 55.9697C156.032 55.4541 155.868 54.8031 155.873 54.0166V42.3916ZM163.627 57.2666V45.2666H166.955V57.2666H163.627ZM165.299 43.7197C164.804 43.7197 164.38 43.5557 164.025 43.2275C163.676 42.8942 163.502 42.4958 163.502 42.0322C163.502 41.5739 163.676 41.1807 164.025 40.8525C164.38 40.5192 164.804 40.3525 165.299 40.3525C165.794 40.3525 166.215 40.5192 166.564 40.8525C166.919 41.1807 167.096 41.5739 167.096 42.0322C167.096 42.4958 166.919 42.8942 166.564 43.2275C166.215 43.5557 165.794 43.7197 165.299 43.7197ZM179.605 48.6885L176.559 48.876C176.507 48.6156 176.395 48.3812 176.223 48.1729C176.051 47.9593 175.824 47.79 175.543 47.665C175.267 47.5348 174.936 47.4697 174.551 47.4697C174.035 47.4697 173.6 47.5791 173.246 47.7979C172.892 48.0114 172.715 48.2979 172.715 48.6572C172.715 48.9437 172.829 49.1859 173.059 49.3838C173.288 49.5817 173.681 49.7406 174.238 49.8604L176.41 50.2979C177.577 50.5374 178.447 50.9229 179.02 51.4541C179.592 51.9854 179.879 52.6833 179.879 53.5479C179.879 54.3343 179.647 55.0244 179.184 55.6182C178.725 56.2119 178.095 56.6755 177.293 57.0088C176.496 57.3369 175.577 57.501 174.535 57.501C172.947 57.501 171.681 57.1702 170.738 56.5088C169.801 55.8421 169.251 54.9359 169.09 53.79L172.363 53.6182C172.462 54.1025 172.702 54.4723 173.082 54.7275C173.462 54.9775 173.949 55.1025 174.543 55.1025C175.126 55.1025 175.595 54.9906 175.949 54.7666C176.309 54.5374 176.491 54.2432 176.496 53.8838C176.491 53.5817 176.363 53.3343 176.113 53.1416C175.863 52.9437 175.478 52.7926 174.957 52.6885L172.879 52.2744C171.707 52.04 170.835 51.6338 170.262 51.0557C169.694 50.4775 169.41 49.7406 169.41 48.8447C169.41 48.0739 169.618 47.4098 170.035 46.8525C170.457 46.2952 171.048 45.8656 171.809 45.5635C172.574 45.2614 173.47 45.1104 174.496 45.1104C176.012 45.1104 177.204 45.4307 178.074 46.0713C178.949 46.7119 179.46 47.5843 179.605 48.6885ZM188.357 45.2666V47.7666H181.131V45.2666H188.357ZM182.771 42.3916H186.1V53.5791C186.1 53.8864 186.146 54.126 186.24 54.2979C186.334 54.4645 186.464 54.5817 186.631 54.6494C186.803 54.7171 187.001 54.751 187.225 54.751C187.381 54.751 187.537 54.738 187.693 54.7119C187.85 54.6807 187.969 54.6572 188.053 54.6416L188.576 57.1182C188.41 57.1702 188.175 57.2301 187.873 57.2979C187.571 57.3708 187.204 57.415 186.771 57.4307C185.969 57.4619 185.266 57.3551 184.662 57.1104C184.063 56.8656 183.597 56.4854 183.264 55.9697C182.93 55.4541 182.766 54.8031 182.771 54.0166V42.3916ZM190.525 57.2666V45.2666H193.854V57.2666H190.525ZM192.197 43.7197C191.702 43.7197 191.278 43.5557 190.924 43.2275C190.575 42.8942 190.4 42.4958 190.4 42.0322C190.4 41.5739 190.575 41.1807 190.924 40.8525C191.278 40.5192 191.702 40.3525 192.197 40.3525C192.692 40.3525 193.114 40.5192 193.463 40.8525C193.817 41.1807 193.994 41.5739 193.994 42.0322C193.994 42.4958 193.817 42.8942 193.463 43.2275C193.114 43.5557 192.692 43.7197 192.197 43.7197ZM201.941 57.501C200.712 57.501 199.655 57.2406 198.77 56.7197C197.889 56.1937 197.212 55.4645 196.738 54.5322C196.27 53.5999 196.035 52.527 196.035 51.3135C196.035 50.0843 196.272 49.0062 196.746 48.0791C197.225 47.1468 197.905 46.4202 198.785 45.8994C199.665 45.3734 200.712 45.1104 201.926 45.1104C202.973 45.1104 203.889 45.3005 204.676 45.6807C205.462 46.0609 206.085 46.5947 206.543 47.2822C207.001 47.9697 207.254 48.777 207.301 49.7041H204.16C204.072 49.1051 203.837 48.6234 203.457 48.2588C203.082 47.889 202.59 47.7041 201.98 47.7041C201.465 47.7041 201.014 47.8447 200.629 48.126C200.249 48.402 199.952 48.8057 199.738 49.3369C199.525 49.8682 199.418 50.5114 199.418 51.2666C199.418 52.0322 199.522 52.6833 199.73 53.2197C199.944 53.7562 200.243 54.165 200.629 54.4463C201.014 54.7275 201.465 54.8682 201.98 54.8682C202.361 54.8682 202.702 54.79 203.004 54.6338C203.311 54.4775 203.564 54.251 203.762 53.9541C203.965 53.652 204.098 53.29 204.16 52.8682H207.301C207.249 53.7848 206.999 54.5921 206.551 55.29C206.108 55.9827 205.496 56.5244 204.715 56.915C203.934 57.3057 203.009 57.501 201.941 57.501Z" fill="#1E1B39"/>
<path d="M60.8283 7.4367C60.7516 6.78897 60.4405 6.28613 59.8951 5.92818C59.3496 5.57022 58.6806 5.39125 57.888 5.39125C57.3084 5.39125 56.8013 5.485 56.3667 5.6725C55.9363 5.86 55.5996 6.11781 55.3567 6.44593C55.1181 6.77406 54.9988 7.14693 54.9988 7.56454C54.9988 7.91397 55.0819 8.2144 55.248 8.46582C55.4185 8.71298 55.6358 8.91966 55.9 9.08585C56.1642 9.24778 56.4412 9.38201 56.731 9.48855C57.0208 9.59082 57.2871 9.67392 57.53 9.73784L58.8596 10.0958C59.2005 10.1853 59.5797 10.3089 59.9973 10.4665C60.4192 10.6242 60.8219 10.8394 61.2054 11.1121C61.5932 11.3806 61.9128 11.7258 62.1642 12.1476C62.4157 12.5695 62.5414 13.0873 62.5414 13.7009C62.5414 14.4083 62.356 15.0475 61.9853 15.6185C61.6188 16.1895 61.0819 16.6434 60.3745 16.98C59.6713 17.3167 58.8169 17.485 57.8113 17.485C56.8738 17.485 56.062 17.3337 55.3759 17.0312C54.6941 16.7286 54.1571 16.3067 53.7651 15.7655C53.3773 15.2243 53.1578 14.5958 53.1067 13.8799H54.7431C54.7857 14.3742 54.9519 14.7833 55.2417 15.1072C55.5357 15.4268 55.9064 15.6654 56.3539 15.8231C56.8056 15.9765 57.2914 16.0532 57.8113 16.0532C58.4164 16.0532 58.9597 15.9552 59.4412 15.7591C59.9228 15.5589 60.3042 15.2819 60.5854 14.9282C60.8667 14.5702 61.0073 14.1526 61.0073 13.6753C61.0073 13.2407 60.8858 12.887 60.6429 12.6143C60.4 12.3415 60.0804 12.1199 59.6841 11.9495C59.2878 11.779 58.8596 11.6299 58.3993 11.502L56.7885 11.0418C55.7658 10.7478 54.9561 10.328 54.3596 9.78258C53.763 9.23713 53.4647 8.52335 53.4647 7.64125C53.4647 6.90829 53.6628 6.26909 54.0591 5.72363C54.4597 5.17392 54.9966 4.74778 55.6699 4.44522C56.3475 4.13841 57.1039 3.985 57.9391 3.985C58.7828 3.985 59.5328 4.13627 60.1891 4.43883C60.8453 4.73713 61.3652 5.14622 61.7488 5.6661C62.1365 6.18599 62.3411 6.77619 62.3624 7.4367H60.8283ZM69.2131 7.4367V8.71511H64.125V7.4367H69.2131ZM65.608 5.08443H67.1165V14.4424C67.1165 14.8685 67.1783 15.1881 67.3018 15.4012C67.4297 15.61 67.5916 15.7506 67.7876 15.8231C67.9879 15.8912 68.1989 15.9253 68.4205 15.9253C68.5866 15.9253 68.723 15.9168 68.8295 15.8998C68.9361 15.8785 69.0213 15.8614 69.0852 15.8486L69.392 17.2037C69.2898 17.2421 69.147 17.2805 68.9638 17.3188C68.7805 17.3614 68.5483 17.3827 68.267 17.3827C67.8409 17.3827 67.4233 17.2911 67.0142 17.1079C66.6094 16.9246 66.2727 16.6455 66.0043 16.2705C65.7401 15.8955 65.608 15.4225 65.608 14.8515V5.08443ZM74.3714 17.485C73.7493 17.485 73.1847 17.3678 72.6776 17.1334C72.1705 16.8948 71.7678 16.5518 71.4695 16.1043C71.1712 15.6526 71.022 15.1072 71.022 14.468C71.022 13.9055 71.1328 13.4495 71.3544 13.1001C71.576 12.7464 71.8722 12.4694 72.2429 12.2691C72.6136 12.0688 73.0227 11.9197 73.4702 11.8216C73.9219 11.7194 74.3757 11.6384 74.8317 11.5787C75.4283 11.502 75.9119 11.4445 76.2827 11.4062C76.6577 11.3635 76.9304 11.2932 77.1009 11.1952C77.2756 11.0972 77.3629 10.9268 77.3629 10.6839V10.6327C77.3629 10.002 77.1903 9.51198 76.8452 9.16255C76.5043 8.81312 75.9865 8.63841 75.2919 8.63841C74.5717 8.63841 74.0071 8.79608 73.598 9.11142C73.1889 9.42676 72.9013 9.76341 72.7351 10.1214L71.3033 9.61C71.5589 9.01341 71.8999 8.54892 72.326 8.21653C72.7564 7.87988 73.2251 7.64551 73.7322 7.51341C74.2436 7.37704 74.7464 7.30886 75.2408 7.30886C75.5561 7.30886 75.9183 7.34721 76.3274 7.42392C76.7408 7.49636 77.1392 7.64764 77.5227 7.87775C77.9105 8.10787 78.2322 8.45517 78.4879 8.91966C78.7436 9.38414 78.8714 10.0063 78.8714 10.7861V17.2549H77.3629V15.9253H77.2862C77.1839 16.1384 77.0135 16.3664 76.7749 16.6093C76.5362 16.8522 76.2188 17.0589 75.8224 17.2293C75.4261 17.3998 74.9425 17.485 74.3714 17.485ZM74.6016 16.1299C75.1982 16.1299 75.701 16.0127 76.1101 15.7783C76.5234 15.5439 76.8345 15.2414 77.0433 14.8706C77.2564 14.4999 77.3629 14.11 77.3629 13.7009V12.3202C77.299 12.3969 77.1584 12.4672 76.9411 12.5312C76.728 12.5908 76.4808 12.6441 76.1996 12.691C75.9226 12.7336 75.652 12.7719 75.3878 12.806C75.1278 12.8358 74.9169 12.8614 74.755 12.8827C74.3629 12.9339 73.9964 13.017 73.6555 13.132C73.3189 13.2428 73.0462 13.4111 72.8374 13.637C72.6328 13.8586 72.5305 14.1611 72.5305 14.5447C72.5305 15.0688 72.7244 15.4651 73.1122 15.7336C73.5043 15.9978 74.0007 16.1299 74.6016 16.1299ZM85.8947 7.4367V8.71511H80.8066V7.4367H85.8947ZM82.2896 5.08443H83.7981V14.4424C83.7981 14.8685 83.8599 15.1881 83.9835 15.4012C84.1113 15.61 84.2733 15.7506 84.4693 15.8231C84.6696 15.8912 84.8805 15.9253 85.1021 15.9253C85.2683 15.9253 85.4047 15.9168 85.5112 15.8998C85.6177 15.8785 85.7029 15.8614 85.7669 15.8486L86.0737 17.2037C85.9714 17.2421 85.8287 17.2805 85.6454 17.3188C85.4622 17.3614 85.2299 17.3827 84.9487 17.3827C84.5225 17.3827 84.1049 17.2911 83.6958 17.1079C83.291 16.9246 82.9544 16.6455 82.6859 16.2705C82.4217 15.8955 82.2896 15.4225 82.2896 14.8515V5.08443ZM88.1639 17.2549V7.4367H89.6724V17.2549H88.1639ZM88.9309 5.80034C88.6369 5.80034 88.3833 5.7002 88.1703 5.49991C87.9615 5.29963 87.8571 5.05886 87.8571 4.77761C87.8571 4.49636 87.9615 4.25559 88.1703 4.05531C88.3833 3.85502 88.6369 3.75488 88.9309 3.75488C89.225 3.75488 89.4764 3.85502 89.6852 4.05531C89.8983 4.25559 90.0048 4.49636 90.0048 4.77761C90.0048 5.05886 89.8983 5.29963 89.6852 5.49991C89.4764 5.7002 89.225 5.80034 88.9309 5.80034ZM99.3899 9.63556L98.0348 10.0191C97.9496 9.79323 97.8239 9.57377 97.6577 9.36071C97.4957 9.14338 97.2741 8.9644 96.9929 8.82377C96.7116 8.68315 96.3516 8.61284 95.9126 8.61284C95.3118 8.61284 94.8111 8.75133 94.4105 9.02832C94.0142 9.30105 93.8161 9.64835 93.8161 10.0702C93.8161 10.4452 93.9524 10.7414 94.2251 10.9587C94.4979 11.176 94.924 11.3572 95.5036 11.502L96.9609 11.86C97.8388 12.0731 98.4929 12.3991 98.9233 12.838C99.3537 13.2726 99.5689 13.833 99.5689 14.5191C99.5689 15.0816 99.407 15.5844 99.0831 16.0276C98.7635 16.4708 98.3161 16.8202 97.7408 17.0759C97.1655 17.3316 96.4964 17.4594 95.7337 17.4594C94.7322 17.4594 93.9034 17.2421 93.2472 16.8074C92.5909 16.3728 92.1754 15.7378 92.0007 14.9026L93.4325 14.5447C93.5689 15.0731 93.8267 15.4694 94.206 15.7336C94.5895 15.9978 95.0902 16.1299 95.7081 16.1299C96.4112 16.1299 96.9695 15.9807 97.3828 15.6824C97.8004 15.3799 98.0092 15.0177 98.0092 14.5958C98.0092 14.2549 97.8899 13.9694 97.6513 13.7393C97.4126 13.5049 97.0462 13.3302 96.5518 13.2151L94.9155 12.8316C94.0163 12.6185 93.3558 12.2883 92.9339 11.8408C92.5163 11.3891 92.3075 10.8245 92.3075 10.1469C92.3075 9.59295 92.4631 9.10289 92.7741 8.67676C93.0895 8.25062 93.5178 7.9161 94.0589 7.67321C94.6044 7.43031 95.2223 7.30886 95.9126 7.30886C96.8842 7.30886 97.647 7.52193 98.201 7.94806C98.7592 8.3742 99.1555 8.9367 99.3899 9.63556ZM106.11 7.4367V8.71511H101.021V7.4367H106.11ZM102.504 5.08443H104.013V14.4424C104.013 14.8685 104.075 15.1881 104.198 15.4012C104.326 15.61 104.488 15.7506 104.684 15.8231C104.884 15.8912 105.095 15.9253 105.317 15.9253C105.483 15.9253 105.619 15.9168 105.726 15.8998C105.833 15.8785 105.918 15.8614 105.982 15.8486L106.289 17.2037C106.186 17.2421 106.044 17.2805 105.86 17.3188C105.677 17.3614 105.445 17.3827 105.164 17.3827C104.737 17.3827 104.32 17.2911 103.911 17.1079C103.506 16.9246 103.169 16.6455 102.901 16.2705C102.637 15.8955 102.504 15.4225 102.504 14.8515V5.08443ZM108.379 17.2549V7.4367H109.887V17.2549H108.379ZM109.146 5.80034C108.852 5.80034 108.598 5.7002 108.385 5.49991C108.176 5.29963 108.072 5.05886 108.072 4.77761C108.072 4.49636 108.176 4.25559 108.385 4.05531C108.598 3.85502 108.852 3.75488 109.146 3.75488C109.44 3.75488 109.691 3.85502 109.9 4.05531C110.113 4.25559 110.22 4.49636 110.22 4.77761C110.22 5.05886 110.113 5.29963 109.9 5.49991C109.691 5.7002 109.44 5.80034 109.146 5.80034ZM116.639 17.4594C115.718 17.4594 114.926 17.2421 114.261 16.8074C113.596 16.3728 113.085 15.7741 112.727 15.0113C112.369 14.2485 112.19 13.377 112.19 12.3969C112.19 11.3998 112.373 10.5198 112.74 9.75701C113.11 8.98997 113.626 8.39125 114.287 7.96085C114.951 7.52619 115.727 7.30886 116.613 7.30886C117.304 7.30886 117.926 7.4367 118.48 7.69238C119.034 7.94806 119.488 8.30602 119.841 8.76625C120.195 9.22647 120.414 9.76341 120.5 10.377H118.991C118.876 9.9296 118.62 9.53329 118.224 9.18812C117.832 8.83869 117.304 8.66397 116.639 8.66397C116.051 8.66397 115.535 8.81738 115.092 9.1242C114.653 9.42676 114.31 9.85502 114.063 10.409C113.82 10.9587 113.699 11.6043 113.699 12.3458C113.699 13.1043 113.818 13.7648 114.056 14.3273C114.299 14.8898 114.64 15.3266 115.079 15.6377C115.522 15.9488 116.042 16.1043 116.639 16.1043C117.031 16.1043 117.387 16.0361 117.706 15.8998C118.026 15.7634 118.297 15.5674 118.518 15.3117C118.74 15.056 118.897 14.7492 118.991 14.3912H120.5C120.414 14.9708 120.203 15.4928 119.867 15.9573C119.534 16.4175 119.093 16.784 118.544 17.0567C117.998 17.3252 117.363 17.4594 116.639 17.4594ZM129.659 9.63556L128.304 10.0191C128.219 9.79323 128.093 9.57377 127.927 9.36071C127.765 9.14338 127.544 8.9644 127.262 8.82377C126.981 8.68315 126.621 8.61284 126.182 8.61284C125.581 8.61284 125.081 8.75133 124.68 9.02832C124.284 9.30105 124.086 9.64835 124.086 10.0702C124.086 10.4452 124.222 10.7414 124.495 10.9587C124.767 11.176 125.194 11.3572 125.773 11.502L127.23 11.86C128.108 12.0731 128.762 12.3991 129.193 12.838C129.623 13.2726 129.838 13.833 129.838 14.5191C129.838 15.0816 129.676 15.5844 129.353 16.0276C129.033 16.4708 128.586 16.8202 128.01 17.0759C127.435 17.3316 126.766 17.4594 126.003 17.4594C125.002 17.4594 124.173 17.2421 123.517 16.8074C122.86 16.3728 122.445 15.7378 122.27 14.9026L123.702 14.5447C123.838 15.0731 124.096 15.4694 124.475 15.7336C124.859 15.9978 125.36 16.1299 125.978 16.1299C126.681 16.1299 127.239 15.9807 127.652 15.6824C128.07 15.3799 128.279 15.0177 128.279 14.5958C128.279 14.2549 128.159 13.9694 127.921 13.7393C127.682 13.5049 127.316 13.3302 126.821 13.2151L125.185 12.8316C124.286 12.6185 123.625 12.2883 123.203 11.8408C122.786 11.3891 122.577 10.8245 122.577 10.1469C122.577 9.59295 122.733 9.10289 123.044 8.67676C123.359 8.25062 123.787 7.9161 124.328 7.67321C124.874 7.43031 125.492 7.30886 126.182 7.30886C127.154 7.30886 127.917 7.52193 128.471 7.94806C129.029 8.3742 129.425 8.9367 129.659 9.63556Z" fill="#9291A5"/>
<defs>
<filter id="filter0_d_269_13323" x="0" y="33.6016" width="756" height="572.138" filterUnits="userSpaceOnUse" color-interpolation-filters="sRGB">
<feFlood flood-opacity="0" result="BackgroundImageFix"/>
<feColorMatrix in="SourceAlpha" type="matrix" values="0 0 0 0 0 0 0 0 0 0 0 0 0 0 0 0 0 0 127 0" result="hardAlpha"/>
<feOffset dy="2"/>
<feGaussianBlur stdDeviation="3"/>
<feComposite in2="hardAlpha" operator="out"/>
<feColorMatrix type="matrix" values="0 0 0 0 0.0509804 0 0 0 0 0.0392157 0 0 0 0 0.172549 0 0 0 0.08 0"/>
<feBlend mode="normal" in2="BackgroundImageFix" result="effect1_dropShadow_269_13323"/>
<feBlend mode="normal" in="SourceGraphic" in2="effect1_dropShadow_269_13323" result="shape"/>
</filter>
<linearGradient id="paint0_linear_269_13323" x1="403.833" y1="185.313" x2="403.833" y2="406.436" gradientUnits="userSpaceOnUse">
<stop stop-color="#0242FF" stop-opacity="0.25"/>
<stop offset="1" stop-color="#0242FF" stop-opacity="0"/>
</linearGradient>
</defs>
</svg>
